<?xml version="1.0" encoding="UTF-8" standalone="no"?>
<!DOCTYPE svg PUBLIC "-//W3C//DTD SVG 1.1//EN"
 "http://www.w3.org/Graphics/SVG/1.1/DTD/svg11.dtd">
<!-- Generated by graphviz version 2.40.1 (20161225.0304)
 -->
<!-- Title: turing_machine Pages: 1 -->
<svg width="823pt" height="612pt"
 viewBox="0.00 0.00 823.00 612.07" xmlns="http://www.w3.org/2000/svg" xmlns:xlink="http://www.w3.org/1999/xlink">
<g id="graph0" class="graph" transform="scale(1 1) rotate(0) translate(4 608.075)">
<title>turing_machine</title>
<polygon fill="#ffffff" stroke="transparent" points="-4,4 -4,-608.075 818.9965,-608.075 818.9965,4 -4,4"/>
<!-- q0 -->
<g id="node1" class="node">
<title>q0</title>
<ellipse fill="#cccccc" stroke="#cccccc" cx="115.4983" cy="-580.5767" rx="19.4968" ry="19.4968"/>
<ellipse fill="none" stroke="#cccccc" cx="115.4983" cy="-580.5767" rx="23.4965" ry="23.4965"/>
<text text-anchor="middle" x="115.4983" y="-576.8767" font-family="Times,serif" font-size="14.00" fill="#000000">q0</text>
</g>
<!-- q1 -->
<g id="node3" class="node">
<title>q1</title>
<ellipse fill="none" stroke="#555555" cx="115.4983" cy="-486.5802" rx="19.4965" ry="19.4965"/>
<text text-anchor="middle" x="115.4983" y="-482.8802" font-family="Times,serif" font-size="14.00" fill="#555555">q1</text>
</g>
<!-- q0&#45;&gt;q1 -->
<g id="edge1" class="edge">
<title>q0&#45;&gt;q1</title>
<path fill="none" stroke="#ef476f" d="M115.4983,-556.8574C115.4983,-544.6205 115.4983,-529.5668 115.4983,-516.5352"/>
<polygon fill="#ef476f" stroke="#ef476f" points="118.9984,-516.1705 115.4983,-506.1705 111.9984,-516.1705 118.9984,-516.1705"/>
<text text-anchor="middle" x="141.9983" y="-527.8784" font-family="Times,serif" font-size="14.00" fill="#ef476f"> &#160;$, $, R &#160;</text>
</g>
<!-- q10 -->
<g id="node2" class="node">
<title>q10</title>
<ellipse fill="none" stroke="#555555" cx="509.4983" cy="-28.0479" rx="24.089" ry="24.089"/>
<ellipse fill="none" stroke="#555555" cx="509.4983" cy="-28.0479" rx="28.0958" ry="28.0958"/>
<text text-anchor="middle" x="509.4983" y="-24.3479" font-family="Times,serif" font-size="14.00" fill="#555555">q10</text>
</g>
<!-- q2 -->
<g id="node4" class="node">
<title>q2</title>
<ellipse fill="none" stroke="#555555" cx="115.4983" cy="-396.5836" rx="19.4965" ry="19.4965"/>
<text text-anchor="middle" x="115.4983" y="-392.8836" font-family="Times,serif" font-size="14.00" fill="#555555">q2</text>
</g>
<!-- q1&#45;&gt;q2 -->
<g id="edge2" class="edge">
<title>q1&#45;&gt;q2</title>
<path fill="none" stroke="#ffb20f" d="M115.4983,-467.0523C115.4983,-455.2226 115.4983,-439.8911 115.4983,-426.5509"/>
<polygon fill="#ffb20f" stroke="#ffb20f" points="118.9984,-426.3842 115.4983,-416.3842 111.9984,-426.3842 118.9984,-426.3842"/>
<text text-anchor="middle" x="143.4983" y="-437.8819" font-family="Times,serif" font-size="14.00" fill="#ffb20f"> &#160;1, X, R &#160;</text>
</g>
<!-- q4 -->
<g id="node5" class="node">
<title>q4</title>
<ellipse fill="none" stroke="#555555" cx="364.4983" cy="-396.5836" rx="19.4965" ry="19.4965"/>
<text text-anchor="middle" x="364.4983" y="-392.8836" font-family="Times,serif" font-size="14.00" fill="#555555">q4</text>
</g>
<!-- q1&#45;&gt;q4 -->
<g id="edge3" class="edge">
<title>q1&#45;&gt;q4</title>
<path fill="none" stroke="#1a936f" d="M134.2137,-479.8158C177.581,-464.1415 285.1485,-425.2632 336.4343,-406.7269"/>
<polygon fill="#1a936f" stroke="#1a936f" points="337.6904,-409.9945 345.9053,-403.3037 335.311,-403.4113 337.6904,-409.9945"/>
<text text-anchor="middle" x="281.9983" y="-437.8819" font-family="Times,serif" font-size="14.00" fill="#1a936f"> &#160;#, #, R &#160;</text>
</g>
<!-- q2&#45;&gt;q2 -->
<g id="edge4" class="edge">
<title>q2&#45;&gt;q2</title>
<path fill="none" stroke="#555555" d="M134.7919,-400.5868C144.4139,-401.1407 152.9965,-399.8063 152.9965,-396.5836 152.9965,-394.6198 149.8095,-393.3572 145.1423,-392.7958"/>
<polygon fill="#555555" stroke="#555555" points="144.8625,-389.2893 134.7919,-392.5805 144.7169,-396.2878 144.8625,-389.2893"/>
<text text-anchor="middle" x="179.4965" y="-392.8836" font-family="Times,serif" font-size="14.00" fill="#555555"> &#160;#, #, R &#160;</text>
</g>
<!-- q2&#45;&gt;q2 -->
<g id="edge5" class="edge">
<title>q2&#45;&gt;q2</title>
<path fill="none" stroke="#26547c" d="M134.4268,-402.2953C162.4903,-407.0383 205.9965,-405.1344 205.9965,-396.5836 205.9965,-389.0015 171.7889,-386.6456 144.4728,-389.516"/>
<polygon fill="#26547c" stroke="#26547c" points="143.8688,-386.0657 134.4268,-390.872 144.8052,-393.0028 143.8688,-386.0657"/>
<text text-anchor="middle" x="232.4965" y="-392.8836" font-family="Times,serif" font-size="14.00" fill="#26547c"> &#160;1, 1, R &#160;</text>
</g>
<!-- q3 -->
<g id="node6" class="node">
<title>q3</title>
<ellipse fill="none" stroke="#555555" cx="19.4983" cy="-306.5871" rx="19.4965" ry="19.4965"/>
<text text-anchor="middle" x="19.4983" y="-302.8871" font-family="Times,serif" font-size="14.00" fill="#555555">q3</text>
</g>
<!-- q2&#45;&gt;q3 -->
<g id="edge6" class="edge">
<title>q2&#45;&gt;q3</title>
<path fill="none" stroke="#ef476f" d="M100.9179,-382.9151C85.0379,-368.0282 59.4698,-344.059 41.2233,-326.9536"/>
<polygon fill="#ef476f" stroke="#ef476f" points="43.5906,-324.3752 33.9013,-320.0894 38.803,-329.4821 43.5906,-324.3752"/>
<text text-anchor="middle" x="100.9983" y="-347.8854" font-family="Times,serif" font-size="14.00" fill="#ef476f"> &#160;B, 1, L &#160;</text>
</g>
<!-- q5 -->
<g id="node7" class="node">
<title>q5</title>
<ellipse fill="none" stroke="#555555" cx="216.4983" cy="-306.5871" rx="19.4965" ry="19.4965"/>
<text text-anchor="middle" x="216.4983" y="-302.8871" font-family="Times,serif" font-size="14.00" fill="#555555">q5</text>
</g>
<!-- q4&#45;&gt;q5 -->
<g id="edge10" class="edge">
<title>q4&#45;&gt;q5</title>
<path fill="none" stroke="#26547c" d="M347.8085,-386.4348C322.0487,-370.7707 272.4158,-340.5897 242.0959,-322.1526"/>
<polygon fill="#26547c" stroke="#26547c" points="243.717,-319.0421 233.3541,-316.8369 240.08,-325.0231 243.717,-319.0421"/>
<text text-anchor="middle" x="327.4983" y="-347.8854" font-family="Times,serif" font-size="14.00" fill="#26547c"> &#160;1, Y, R &#160;</text>
</g>
<!-- q7 -->
<g id="node8" class="node">
<title>q7</title>
<ellipse fill="none" stroke="#555555" cx="509.4983" cy="-306.5871" rx="19.4965" ry="19.4965"/>
<text text-anchor="middle" x="509.4983" y="-302.8871" font-family="Times,serif" font-size="14.00" fill="#555555">q7</text>
</g>
<!-- q4&#45;&gt;q7 -->
<g id="edge11" class="edge">
<title>q4&#45;&gt;q7</title>
<path fill="none" stroke="#ef476f" d="M381.4341,-386.7049C394.1685,-379.2282 412.0114,-368.6484 427.4983,-359.0854 446.6149,-347.281 467.9852,-333.5826 484.1159,-323.1388"/>
<polygon fill="#ef476f" stroke="#ef476f" points="486.4683,-325.7846 492.9513,-317.4048 482.6576,-319.9128 486.4683,-325.7846"/>
<text text-anchor="middle" x="476.9983" y="-347.8854" font-family="Times,serif" font-size="14.00" fill="#ef476f"> &#160;#, #, R &#160;</text>
</g>
<!-- q3&#45;&gt;q1 -->
<g id="edge9" class="edge">
<title>q3&#45;&gt;q1</title>
<path fill="none" stroke="#555555" d="M16.6943,-326.0538C14.3442,-348.9899 13.4446,-387.5785 28.4983,-416.0819 41.8825,-441.4243 68.7028,-460.9578 89.0459,-472.9686"/>
<polygon fill="#555555" stroke="#555555" points="87.4373,-476.0797 97.8654,-477.9516 90.8807,-469.9852 87.4373,-476.0797"/>
<text text-anchor="middle" x="57.9983" y="-392.8836" font-family="Times,serif" font-size="14.00" fill="#555555"> &#160;X, X, R &#160;</text>
</g>
<!-- q3&#45;&gt;q3 -->
<g id="edge7" class="edge">
<title>q3&#45;&gt;q3</title>
<path fill="none" stroke="#ffb20f" d="M38.7919,-310.5902C48.4139,-311.1441 56.9965,-309.8097 56.9965,-306.5871 56.9965,-304.6233 53.8095,-303.3607 49.1423,-302.7992"/>
<polygon fill="#ffb20f" stroke="#ffb20f" points="48.8625,-299.2927 38.7919,-302.5839 48.7169,-306.2912 48.8625,-299.2927"/>
<text text-anchor="middle" x="82.9965" y="-302.8871" font-family="Times,serif" font-size="14.00" fill="#ffb20f"> &#160;#, #, L &#160;</text>
</g>
<!-- q3&#45;&gt;q3 -->
<g id="edge8" class="edge">
<title>q3&#45;&gt;q3</title>
<path fill="none" stroke="#1a936f" d="M38.3002,-312.2987C66.0945,-317.0417 108.9965,-315.1379 108.9965,-306.5871 108.9965,-299.0049 75.264,-296.6491 48.2432,-299.5194"/>
<polygon fill="#1a936f" stroke="#1a936f" points="47.7355,-296.0562 38.3002,-300.8754 48.6814,-302.992 47.7355,-296.0562"/>
<text text-anchor="middle" x="134.9965" y="-302.8871" font-family="Times,serif" font-size="14.00" fill="#1a936f"> &#160;1, 1, L &#160;</text>
</g>
<!-- q5&#45;&gt;q5 -->
<g id="edge12" class="edge">
<title>q5&#45;&gt;q5</title>
<path fill="none" stroke="#ffb20f" d="M235.7919,-310.5902C245.4139,-311.1441 253.9965,-309.8097 253.9965,-306.5871 253.9965,-304.6233 250.8095,-303.3607 246.1423,-302.7992"/>
<polygon fill="#ffb20f" stroke="#ffb20f" points="245.8625,-299.2927 235.7919,-302.5839 245.7169,-306.2912 245.8625,-299.2927"/>
<text text-anchor="middle" x="280.4965" y="-302.8871" font-family="Times,serif" font-size="14.00" fill="#ffb20f"> &#160;#, #, R &#160;</text>
</g>
<!-- q5&#45;&gt;q5 -->
<g id="edge13" class="edge">
<title>q5&#45;&gt;q5</title>
<path fill="none" stroke="#1a936f" d="M235.4268,-312.2987C263.4903,-317.0417 306.9965,-315.1379 306.9965,-306.5871 306.9965,-299.0049 272.7889,-296.6491 245.4728,-299.5194"/>
<polygon fill="#1a936f" stroke="#1a936f" points="244.8688,-296.0691 235.4268,-300.8754 245.8052,-303.0062 244.8688,-296.0691"/>
<text text-anchor="middle" x="333.4965" y="-302.8871" font-family="Times,serif" font-size="14.00" fill="#1a936f"> &#160;1, 1, R &#160;</text>
</g>
<!-- q6 -->
<g id="node9" class="node">
<title>q6</title>
<ellipse fill="none" stroke="#555555" cx="288.4983" cy="-216.5905" rx="19.4965" ry="19.4965"/>
<text text-anchor="middle" x="288.4983" y="-212.8905" font-family="Times,serif" font-size="14.00" fill="#555555">q6</text>
</g>
<!-- q5&#45;&gt;q6 -->
<g id="edge14" class="edge">
<title>q5&#45;&gt;q6</title>
<path fill="none" stroke="#555555" d="M228.7121,-291.3204C239.9867,-277.2277 256.8953,-256.0927 269.857,-239.8913"/>
<polygon fill="#555555" stroke="#555555" points="272.7104,-241.9272 276.2245,-231.9321 267.2444,-237.5542 272.7104,-241.9272"/>
<text text-anchor="middle" x="284.9983" y="-257.8888" font-family="Times,serif" font-size="14.00" fill="#555555"> &#160;B, 1, L &#160;</text>
</g>
<!-- q7&#45;&gt;q7 -->
<g id="edge18" class="edge">
<title>q7&#45;&gt;q7</title>
<path fill="none" stroke="#1a936f" d="M527.6327,-314.4423C537.7135,-315.9086 546.9965,-313.2902 546.9965,-306.5871 546.9965,-302.2929 543.1868,-299.6751 537.7982,-298.7336"/>
<polygon fill="#1a936f" stroke="#1a936f" points="537.6334,-295.2337 527.6327,-298.7319 537.6321,-302.2337 537.6334,-295.2337"/>
<text text-anchor="middle" x="573.4965" y="-302.8871" font-family="Times,serif" font-size="14.00" fill="#1a936f"> &#160;1, 1, R &#160;</text>
</g>
<!-- q8 -->
<g id="node10" class="node">
<title>q8</title>
<ellipse fill="none" stroke="#555555" cx="509.4983" cy="-216.5905" rx="19.4965" ry="19.4965"/>
<text text-anchor="middle" x="509.4983" y="-212.8905" font-family="Times,serif" font-size="14.00" fill="#555555">q8</text>
</g>
<!-- q7&#45;&gt;q8 -->
<g id="edge19" class="edge">
<title>q7&#45;&gt;q8</title>
<path fill="none" stroke="#555555" d="M509.4983,-287.0592C509.4983,-275.2295 509.4983,-259.8981 509.4983,-246.5579"/>
<polygon fill="#555555" stroke="#555555" points="512.9984,-246.3911 509.4983,-236.3911 505.9984,-246.3912 512.9984,-246.3911"/>
<text text-anchor="middle" x="537.9983" y="-257.8888" font-family="Times,serif" font-size="14.00" fill="#555555"> &#160;B, B, L &#160;</text>
</g>
<!-- q6&#45;&gt;q4 -->
<g id="edge17" class="edge">
<title>q6&#45;&gt;q4</title>
<path fill="none" stroke="#ffb20f" d="M307.1018,-223.6667C330.5693,-233.7292 369.8655,-254.6343 386.4983,-287.0888 400.0395,-313.511 389.5104,-347.4993 378.8613,-370.5493"/>
<polygon fill="#ffb20f" stroke="#ffb20f" points="375.6315,-369.1859 374.3599,-379.7042 381.9133,-372.2746 375.6315,-369.1859"/>
<text text-anchor="middle" x="422.9983" y="-302.8871" font-family="Times,serif" font-size="14.00" fill="#ffb20f"> &#160;Y, Y, R &#160;</text>
</g>
<!-- q6&#45;&gt;q6 -->
<g id="edge15" class="edge">
<title>q6&#45;&gt;q6</title>
<path fill="none" stroke="#26547c" d="M307.7919,-220.5937C317.4139,-221.1476 325.9965,-219.8132 325.9965,-216.5905 325.9965,-214.6267 322.8095,-213.3641 318.1423,-212.8027"/>
<polygon fill="#26547c" stroke="#26547c" points="317.8625,-209.2962 307.7919,-212.5874 317.7169,-216.2947 317.8625,-209.2962"/>
<text text-anchor="middle" x="351.9965" y="-212.8905" font-family="Times,serif" font-size="14.00" fill="#26547c"> &#160;1, 1, L &#160;</text>
</g>
<!-- q6&#45;&gt;q6 -->
<g id="edge16" class="edge">
<title>q6&#45;&gt;q6</title>
<path fill="none" stroke="#ef476f" d="M307.3002,-222.3022C335.0945,-227.0452 377.9965,-225.1413 377.9965,-216.5905 377.9965,-209.0084 344.264,-206.6525 317.2432,-209.5229"/>
<polygon fill="#ef476f" stroke="#ef476f" points="316.7355,-206.0596 307.3002,-210.8789 317.6814,-212.9954 316.7355,-206.0596"/>
<text text-anchor="middle" x="403.9965" y="-212.8905" font-family="Times,serif" font-size="14.00" fill="#ef476f"> &#160;#, #, L &#160;</text>
</g>
<!-- q9 -->
<g id="node11" class="node">
<title>q9</title>
<ellipse fill="none" stroke="#555555" cx="509.4983" cy="-126.594" rx="19.4965" ry="19.4965"/>
<text text-anchor="middle" x="509.4983" y="-122.894" font-family="Times,serif" font-size="14.00" fill="#555555">q9</text>
</g>
<!-- q8&#45;&gt;q9 -->
<g id="edge20" class="edge">
<title>q8&#45;&gt;q9</title>
<path fill="none" stroke="#26547c" d="M493.0244,-205.8427C479.9233,-195.8291 464.8143,-180.0783 471.4983,-164.0923 474.5462,-156.8024 479.7782,-150.2094 485.4016,-144.6575"/>
<polygon fill="#26547c" stroke="#26547c" points="488.0025,-147.028 493.1441,-137.7644 483.3478,-141.7998 488.0025,-147.028"/>
<text text-anchor="middle" x="498.9983" y="-167.8923" font-family="Times,serif" font-size="14.00" fill="#26547c"> &#160;1, B, L &#160;</text>
</g>
<!-- q8&#45;&gt;q9 -->
<g id="edge21" class="edge">
<title>q8&#45;&gt;q9</title>
<path fill="none" stroke="#ef476f" d="M519.7108,-199.8035C524.7039,-189.6133 529.1288,-176.2656 526.4983,-164.0923 525.6962,-160.3806 524.4949,-156.5946 523.0947,-152.925"/>
<polygon fill="#ef476f" stroke="#ef476f" points="526.2478,-151.3985 519.061,-143.6139 519.8246,-154.1812 526.2478,-151.3985"/>
<text text-anchor="middle" x="553.4983" y="-167.8923" font-family="Times,serif" font-size="14.00" fill="#ef476f"> &#160;#, #, L &#160;</text>
</g>
<!-- q9&#45;&gt;q10 -->
<g id="edge26" class="edge">
<title>q9&#45;&gt;q10</title>
<path fill="none" stroke="#ef476f" d="M509.4983,-106.6517C509.4983,-95.0889 509.4983,-80.1379 509.4983,-66.3842"/>
<polygon fill="#ef476f" stroke="#ef476f" points="512.9984,-66.1759 509.4983,-56.1759 505.9984,-66.176 512.9984,-66.1759"/>
<text text-anchor="middle" x="535.9983" y="-77.8957" font-family="Times,serif" font-size="14.00" fill="#ef476f"> &#160;$, $, R &#160;</text>
</g>
<!-- q9&#45;&gt;q9 -->
<g id="edge22" class="edge">
<title>q9&#45;&gt;q9</title>
<path fill="none" stroke="#ffb20f" d="M529.1762,-128.6061C538.6412,-128.8546 546.9965,-128.1838 546.9965,-126.594 546.9965,-125.6252 543.8939,-124.9977 539.3282,-124.7115"/>
<polygon fill="#ffb20f" stroke="#ffb20f" points="539.2201,-121.2099 529.1762,-124.5819 539.1307,-128.2094 539.2201,-121.2099"/>
<text text-anchor="middle" x="572.9965" y="-122.894" font-family="Times,serif" font-size="14.00" fill="#ffb20f"> &#160;#, #, L &#160;</text>
</g>
<!-- q9&#45;&gt;q9 -->
<g id="edge23" class="edge">
<title>q9&#45;&gt;q9</title>
<path fill="none" stroke="#1a936f" d="M529.1427,-129.5203C556.9526,-131.8019 598.9965,-130.8264 598.9965,-126.594 598.9965,-122.8576 566.2292,-121.6595 539.4155,-122.9998"/>
<polygon fill="#1a936f" stroke="#1a936f" points="538.8945,-119.5261 529.1427,-123.6677 539.3488,-126.5114 538.8945,-119.5261"/>
<text text-anchor="middle" x="626.4965" y="-122.894" font-family="Times,serif" font-size="14.00" fill="#1a936f"> &#160;Y, 1, L &#160;</text>
</g>
<!-- q9&#45;&gt;q9 -->
<g id="edge24" class="edge">
<title>q9&#45;&gt;q9</title>
<path fill="none" stroke="#555555" d="M528.9056,-130.0529C570.9242,-134.6112 653.9965,-133.4583 653.9965,-126.594 653.9965,-120.2392 582.7977,-118.7794 538.889,-122.2145"/>
<polygon fill="#555555" stroke="#555555" points="538.5419,-118.7316 528.9056,-123.1351 539.1847,-125.702 538.5419,-118.7316"/>
<text text-anchor="middle" x="681.4965" y="-122.894" font-family="Times,serif" font-size="14.00" fill="#555555"> &#160;X, 1, L &#160;</text>
</g>
<!-- q9&#45;&gt;q9 -->
<g id="edge25" class="edge">
<title>q9&#45;&gt;q9</title>
<path fill="none" stroke="#26547c" d="M528.6226,-130.4419C582.4788,-137.3942 708.9965,-136.1116 708.9965,-126.594 708.9965,-117.6341 596.8708,-115.9724 538.7979,-121.6088"/>
<polygon fill="#26547c" stroke="#26547c" points="538.172,-118.1569 528.6226,-122.7461 538.9496,-125.1136 538.172,-118.1569"/>
<text text-anchor="middle" x="734.9965" y="-122.894" font-family="Times,serif" font-size="14.00" fill="#26547c"> &#160;1, 1, L &#160;</text>
</g>
</g>
</svg>
