<?xml version="1.0" encoding="UTF-8" standalone="no"?>
<!DOCTYPE svg PUBLIC "-//W3C//DTD SVG 1.1//EN"
 "http://www.w3.org/Graphics/SVG/1.1/DTD/svg11.dtd">
<!-- Generated by graphviz version 2.40.1 (20161225.0304)
 -->
<!-- Title: turing_machine Pages: 1 -->
<svg width="2322pt" height="1306pt"
 viewBox="0.00 0.00 2322.35 1305.75" xmlns="http://www.w3.org/2000/svg" xmlns:xlink="http://www.w3.org/1999/xlink">
<g id="graph0" class="graph" transform="scale(1 1) rotate(0) translate(4 1301.7451)">
<title>turing_machine</title>
<polygon fill="#ffffff" stroke="transparent" points="-4,4 -4,-1301.7451 2318.3474,-1301.7451 2318.3474,4 -4,4"/>
<!-- q0 -->
<g id="node1" class="node">
<title>q0</title>
<ellipse fill="#cccccc" stroke="#cccccc" cx="1048.2996" cy="-1274.2468" rx="19.4968" ry="19.4968"/>
<ellipse fill="none" stroke="#cccccc" cx="1048.2996" cy="-1274.2468" rx="23.4965" ry="23.4965"/>
<text text-anchor="middle" x="1048.2996" y="-1270.5468" font-family="Times,serif" font-size="14.00" fill="#000000">q0</text>
</g>
<!-- q1 -->
<g id="node3" class="node">
<title>q1</title>
<ellipse fill="none" stroke="#555555" cx="1048.2996" cy="-1180.2503" rx="19.4965" ry="19.4965"/>
<text text-anchor="middle" x="1048.2996" y="-1176.5503" font-family="Times,serif" font-size="14.00" fill="#555555">q1</text>
</g>
<!-- q0&#45;&gt;q1 -->
<g id="edge1" class="edge">
<title>q0&#45;&gt;q1</title>
<path fill="none" stroke="#ffb20f" d="M1048.2996,-1250.5275C1048.2996,-1238.2907 1048.2996,-1223.237 1048.2996,-1210.2054"/>
<polygon fill="#ffb20f" stroke="#ffb20f" points="1051.7997,-1209.8406 1048.2996,-1199.8406 1044.7997,-1209.8407 1051.7997,-1209.8406"/>
<text text-anchor="middle" x="1074.7996" y="-1221.5486" font-family="Times,serif" font-size="14.00" fill="#ffb20f"> &#160;$, $, R &#160;</text>
</g>
<!-- q26 -->
<g id="node2" class="node">
<title>q26</title>
<ellipse fill="none" stroke="#555555" cx="969.2996" cy="-28.0479" rx="24.089" ry="24.089"/>
<ellipse fill="none" stroke="#555555" cx="969.2996" cy="-28.0479" rx="28.0958" ry="28.0958"/>
<text text-anchor="middle" x="969.2996" y="-24.3479" font-family="Times,serif" font-size="14.00" fill="#555555">q26</text>
</g>
<!-- q1&#45;&gt;q1 -->
<g id="edge2" class="edge">
<title>q1&#45;&gt;q1</title>
<path fill="none" stroke="#1a936f" d="M1067.9775,-1182.9331C1077.4425,-1183.2644 1085.7978,-1182.3701 1085.7978,-1180.2503 1085.7978,-1178.9585 1082.6952,-1178.1219 1078.1294,-1177.7403"/>
<polygon fill="#1a936f" stroke="#1a936f" points="1078.0356,-1174.2383 1067.9775,-1177.5674 1077.9164,-1181.2373 1078.0356,-1174.2383"/>
<text text-anchor="middle" x="1112.2978" y="-1176.5503" font-family="Times,serif" font-size="14.00" fill="#1a936f"> &#160;0, 0, R &#160;</text>
</g>
<!-- q1&#45;&gt;q1 -->
<g id="edge3" class="edge">
<title>q1&#45;&gt;q1</title>
<path fill="none" stroke="#555555" d="M1067.6524,-1184.1054C1095.7277,-1187.2072 1138.7978,-1185.9222 1138.7978,-1180.2503 1138.7978,-1175.2209 1104.9331,-1173.6408 1077.6864,-1175.5099"/>
<polygon fill="#555555" stroke="#555555" points="1077.306,-1172.0298 1067.6524,-1176.3952 1077.9213,-1179.0027 1077.306,-1172.0298"/>
<text text-anchor="middle" x="1165.2978" y="-1176.5503" font-family="Times,serif" font-size="14.00" fill="#555555"> &#160;1, 1, R &#160;</text>
</g>
<!-- q1&#45;&gt;q1 -->
<g id="edge4" class="edge">
<title>q1&#45;&gt;q1</title>
<path fill="none" stroke="#26547c" d="M1067.3381,-1184.8193C1109.0306,-1190.9471 1191.7978,-1189.4241 1191.7978,-1180.2503 1191.7978,-1171.7752 1121.1594,-1169.8299 1077.5257,-1174.4142"/>
<polygon fill="#26547c" stroke="#26547c" points="1076.8296,-1170.9737 1067.3381,-1175.6813 1077.6936,-1177.9202 1076.8296,-1170.9737"/>
<text text-anchor="middle" x="1218.2978" y="-1176.5503" font-family="Times,serif" font-size="14.00" fill="#26547c"> &#160;#, #, R &#160;</text>
</g>
<!-- q2 -->
<g id="node4" class="node">
<title>q2</title>
<ellipse fill="none" stroke="#555555" cx="1048.2996" cy="-1090.2537" rx="19.4965" ry="19.4965"/>
<text text-anchor="middle" x="1048.2996" y="-1086.5537" font-family="Times,serif" font-size="14.00" fill="#555555">q2</text>
</g>
<!-- q1&#45;&gt;q2 -->
<g id="edge5" class="edge">
<title>q1&#45;&gt;q2</title>
<path fill="none" stroke="#ef476f" d="M1048.2996,-1160.7224C1048.2996,-1148.8927 1048.2996,-1133.5613 1048.2996,-1120.2211"/>
<polygon fill="#ef476f" stroke="#ef476f" points="1051.7997,-1120.0543 1048.2996,-1110.0543 1044.7997,-1120.0544 1051.7997,-1120.0543"/>
<text text-anchor="middle" x="1075.7996" y="-1131.552" font-family="Times,serif" font-size="14.00" fill="#ef476f"> &#160;B, #, L &#160;</text>
</g>
<!-- q2&#45;&gt;q2 -->
<g id="edge6" class="edge">
<title>q2&#45;&gt;q2</title>
<path fill="none" stroke="#ffb20f" d="M1067.9775,-1092.9366C1077.4425,-1093.2678 1085.7978,-1092.3735 1085.7978,-1090.2537 1085.7978,-1088.962 1082.6952,-1088.1253 1078.1294,-1087.7437"/>
<polygon fill="#ffb20f" stroke="#ffb20f" points="1078.0356,-1084.2417 1067.9775,-1087.5709 1077.9164,-1091.2407 1078.0356,-1084.2417"/>
<text text-anchor="middle" x="1111.7978" y="-1086.5537" font-family="Times,serif" font-size="14.00" fill="#ffb20f"> &#160;0, 0, L &#160;</text>
</g>
<!-- q2&#45;&gt;q2 -->
<g id="edge7" class="edge">
<title>q2&#45;&gt;q2</title>
<path fill="none" stroke="#1a936f" d="M1067.5216,-1094.1089C1095.3259,-1097.2107 1137.7978,-1095.9256 1137.7978,-1090.2537 1137.7978,-1085.2465 1104.697,-1083.6583 1077.8089,-1085.4889"/>
<polygon fill="#1a936f" stroke="#1a936f" points="1077.1744,-1082.0313 1067.5216,-1086.3986 1077.7911,-1089.004 1077.1744,-1082.0313"/>
<text text-anchor="middle" x="1163.7978" y="-1086.5537" font-family="Times,serif" font-size="14.00" fill="#1a936f"> &#160;1, 1, L &#160;</text>
</g>
<!-- q2&#45;&gt;q2 -->
<g id="edge8" class="edge">
<title>q2&#45;&gt;q2</title>
<path fill="none" stroke="#555555" d="M1067.4814,-1094.8657C1108.8023,-1100.9434 1189.7978,-1099.4061 1189.7978,-1090.2537 1189.7978,-1081.7986 1120.6715,-1079.8425 1077.5611,-1084.3855"/>
<polygon fill="#555555" stroke="#555555" points="1076.9717,-1080.9318 1067.4814,-1085.6418 1077.8375,-1087.8781 1076.9717,-1080.9318"/>
<text text-anchor="middle" x="1215.7978" y="-1086.5537" font-family="Times,serif" font-size="14.00" fill="#555555"> &#160;#, #, L &#160;</text>
</g>
<!-- q3 -->
<g id="node5" class="node">
<title>q3</title>
<ellipse fill="none" stroke="#555555" cx="1048.2996" cy="-1000.2572" rx="19.4965" ry="19.4965"/>
<text text-anchor="middle" x="1048.2996" y="-996.5572" font-family="Times,serif" font-size="14.00" fill="#555555">q3</text>
</g>
<!-- q2&#45;&gt;q3 -->
<g id="edge9" class="edge">
<title>q2&#45;&gt;q3</title>
<path fill="none" stroke="#26547c" d="M1048.2996,-1070.7258C1048.2996,-1058.8962 1048.2996,-1043.5647 1048.2996,-1030.2245"/>
<polygon fill="#26547c" stroke="#26547c" points="1051.7997,-1030.0578 1048.2996,-1020.0578 1044.7997,-1030.0578 1051.7997,-1030.0578"/>
<text text-anchor="middle" x="1074.7996" y="-1041.5555" font-family="Times,serif" font-size="14.00" fill="#26547c"> &#160;$, $, R &#160;</text>
</g>
<!-- q3&#45;&gt;q3 -->
<g id="edge10" class="edge">
<title>q3&#45;&gt;q3</title>
<path fill="none" stroke="#ef476f" d="M1067.5932,-1004.2604C1077.2152,-1004.8142 1085.7978,-1003.4799 1085.7978,-1000.2572 1085.7978,-998.2934 1082.6108,-997.0308 1077.9436,-996.4694"/>
<polygon fill="#ef476f" stroke="#ef476f" points="1077.6638,-992.9629 1067.5932,-996.2541 1077.5182,-999.9614 1077.6638,-992.9629"/>
<text text-anchor="middle" x="1112.2978" y="-996.5572" font-family="Times,serif" font-size="14.00" fill="#ef476f"> &#160;0, 0, R &#160;</text>
</g>
<!-- q3&#45;&gt;q3 -->
<g id="edge11" class="edge">
<title>q3&#45;&gt;q3</title>
<path fill="none" stroke="#ffb20f" d="M1067.2281,-1005.9689C1095.2916,-1010.7119 1138.7978,-1008.808 1138.7978,-1000.2572 1138.7978,-992.6751 1104.5902,-990.3192 1077.2741,-993.1896"/>
<polygon fill="#ffb20f" stroke="#ffb20f" points="1076.6701,-989.7393 1067.2281,-994.5456 1077.6065,-996.6764 1076.6701,-989.7393"/>
<text text-anchor="middle" x="1165.2978" y="-996.5572" font-family="Times,serif" font-size="14.00" fill="#ffb20f"> &#160;1, 1, R &#160;</text>
</g>
<!-- q4 -->
<g id="node6" class="node">
<title>q4</title>
<ellipse fill="none" stroke="#555555" cx="1048.2996" cy="-910.2607" rx="19.4965" ry="19.4965"/>
<text text-anchor="middle" x="1048.2996" y="-906.5607" font-family="Times,serif" font-size="14.00" fill="#555555">q4</text>
</g>
<!-- q3&#45;&gt;q4 -->
<g id="edge12" class="edge">
<title>q3&#45;&gt;q4</title>
<path fill="none" stroke="#1a936f" d="M1048.2996,-980.7293C1048.2996,-968.8996 1048.2996,-953.5682 1048.2996,-940.228"/>
<polygon fill="#1a936f" stroke="#1a936f" points="1051.7997,-940.0612 1048.2996,-930.0613 1044.7997,-940.0613 1051.7997,-940.0612"/>
<text text-anchor="middle" x="1074.7996" y="-951.5589" font-family="Times,serif" font-size="14.00" fill="#1a936f"> &#160;#, #, R &#160;</text>
</g>
<!-- q4&#45;&gt;q4 -->
<g id="edge13" class="edge">
<title>q4&#45;&gt;q4</title>
<path fill="none" stroke="#555555" d="M1067.5932,-914.2638C1077.2152,-914.8177 1085.7978,-913.4833 1085.7978,-910.2607 1085.7978,-908.2969 1082.6108,-907.0342 1077.9436,-906.4728"/>
<polygon fill="#555555" stroke="#555555" points="1077.6638,-902.9663 1067.5932,-906.2575 1077.5182,-909.9648 1077.6638,-902.9663"/>
<text text-anchor="middle" x="1112.2978" y="-906.5607" font-family="Times,serif" font-size="14.00" fill="#555555"> &#160;0, 0, R &#160;</text>
</g>
<!-- q4&#45;&gt;q4 -->
<g id="edge14" class="edge">
<title>q4&#45;&gt;q4</title>
<path fill="none" stroke="#26547c" d="M1067.2281,-915.9723C1095.2916,-920.7153 1138.7978,-918.8115 1138.7978,-910.2607 1138.7978,-902.6785 1104.5902,-900.3226 1077.2741,-903.193"/>
<polygon fill="#26547c" stroke="#26547c" points="1076.6701,-899.7427 1067.2281,-904.549 1077.6065,-906.6798 1076.6701,-899.7427"/>
<text text-anchor="middle" x="1165.2978" y="-906.5607" font-family="Times,serif" font-size="14.00" fill="#26547c"> &#160;1, 1, R &#160;</text>
</g>
<!-- q5 -->
<g id="node7" class="node">
<title>q5</title>
<ellipse fill="none" stroke="#555555" cx="1048.2996" cy="-820.2641" rx="19.4965" ry="19.4965"/>
<text text-anchor="middle" x="1048.2996" y="-816.5641" font-family="Times,serif" font-size="14.00" fill="#555555">q5</text>
</g>
<!-- q4&#45;&gt;q5 -->
<g id="edge15" class="edge">
<title>q4&#45;&gt;q5</title>
<path fill="none" stroke="#ef476f" d="M1048.2996,-890.7328C1048.2996,-878.9031 1048.2996,-863.5716 1048.2996,-850.2314"/>
<polygon fill="#ef476f" stroke="#ef476f" points="1051.7997,-850.0647 1048.2996,-840.0647 1044.7997,-850.0647 1051.7997,-850.0647"/>
<text text-anchor="middle" x="1074.2996" y="-861.5624" font-family="Times,serif" font-size="14.00" fill="#ef476f"> &#160;#, #, L &#160;</text>
</g>
<!-- q5&#45;&gt;q5 -->
<g id="edge16" class="edge">
<title>q5&#45;&gt;q5</title>
<path fill="none" stroke="#ffb20f" d="M1067.5932,-824.2673C1077.2152,-824.8212 1085.7978,-823.4868 1085.7978,-820.2641 1085.7978,-818.3003 1082.6108,-817.0377 1077.9436,-816.4763"/>
<polygon fill="#ffb20f" stroke="#ffb20f" points="1077.6638,-812.9698 1067.5932,-816.261 1077.5182,-819.9683 1077.6638,-812.9698"/>
<text text-anchor="middle" x="1113.2978" y="-816.5641" font-family="Times,serif" font-size="14.00" fill="#ffb20f"> &#160;Z, Z, L &#160;</text>
</g>
<!-- q5&#45;&gt;q5 -->
<g id="edge17" class="edge">
<title>q5&#45;&gt;q5</title>
<path fill="none" stroke="#1a936f" d="M1067.0515,-825.9038C1095.6325,-830.7378 1140.7978,-828.8579 1140.7978,-820.2641 1140.7978,-812.6439 1105.2857,-810.3026 1077.3133,-813.2402"/>
<polygon fill="#1a936f" stroke="#1a936f" points="1076.4938,-809.8189 1067.0515,-814.6245 1077.4297,-816.7561 1076.4938,-809.8189"/>
<text text-anchor="middle" x="1169.7978" y="-816.5641" font-family="Times,serif" font-size="14.00" fill="#1a936f"> &#160;U, U, L &#160;</text>
</g>
<!-- q6 -->
<g id="node8" class="node">
<title>q6</title>
<ellipse fill="none" stroke="#555555" cx="1170.2996" cy="-725.718" rx="19.4965" ry="19.4965"/>
<text text-anchor="middle" x="1170.2996" y="-722.018" font-family="Times,serif" font-size="14.00" fill="#555555">q6</text>
</g>
<!-- q5&#45;&gt;q6 -->
<g id="edge18" class="edge">
<title>q5&#45;&gt;q6</title>
<path fill="none" stroke="#555555" d="M1063.7509,-808.2898C1084.6284,-792.1104 1122.0441,-763.1145 1146.5191,-744.1471"/>
<polygon fill="#555555" stroke="#555555" points="1148.8279,-746.7858 1154.5883,-737.8937 1144.54,-741.2528 1148.8279,-746.7858"/>
<text text-anchor="middle" x="1139.2996" y="-771.5659" font-family="Times,serif" font-size="14.00" fill="#555555"> &#160;0, Z, L &#160;</text>
</g>
<!-- q10 -->
<g id="node9" class="node">
<title>q10</title>
<ellipse fill="none" stroke="#555555" cx="1436.2996" cy="-725.718" rx="24.0958" ry="24.0958"/>
<text text-anchor="middle" x="1436.2996" y="-722.018" font-family="Times,serif" font-size="14.00" fill="#555555">q10</text>
</g>
<!-- q5&#45;&gt;q10 -->
<g id="edge19" class="edge">
<title>q5&#45;&gt;q10</title>
<path fill="none" stroke="#26547c" d="M1067.304,-815.6592C1113.6397,-804.4285 1236.1216,-774.722 1338.2996,-749.7659 1359.8385,-744.5052 1384.0331,-738.5684 1402.9932,-733.9098"/>
<polygon fill="#26547c" stroke="#26547c" points="1404.0623,-737.2513 1412.9379,-731.4657 1402.3915,-730.4536 1404.0623,-737.2513"/>
<text text-anchor="middle" x="1285.7996" y="-771.5659" font-family="Times,serif" font-size="14.00" fill="#26547c"> &#160;1, U, L &#160;</text>
</g>
<!-- q15 -->
<g id="node10" class="node">
<title>q15</title>
<ellipse fill="none" stroke="#555555" cx="831.2996" cy="-626.6223" rx="24.0958" ry="24.0958"/>
<text text-anchor="middle" x="831.2996" y="-622.9223" font-family="Times,serif" font-size="14.00" fill="#555555">q15</text>
</g>
<!-- q5&#45;&gt;q15 -->
<g id="edge20" class="edge">
<title>q5&#45;&gt;q15</title>
<path fill="none" stroke="#ef476f" d="M1033.3726,-807.6584C1016.8509,-793.6533 989.4899,-770.3036 966.2996,-749.7659 927.6081,-715.5002 883.4876,-674.9742 856.5183,-650.0338"/>
<polygon fill="#ef476f" stroke="#ef476f" points="858.7708,-647.3495 849.0548,-643.1246 854.0155,-652.4863 858.7708,-647.3495"/>
<text text-anchor="middle" x="992.2996" y="-722.018" font-family="Times,serif" font-size="14.00" fill="#ef476f"> &#160;#, #, L &#160;</text>
</g>
<!-- q6&#45;&gt;q6 -->
<g id="edge21" class="edge">
<title>q6&#45;&gt;q6</title>
<path fill="none" stroke="#ffb20f" d="M1189.5932,-730.0851C1199.2152,-730.6893 1207.7978,-729.2336 1207.7978,-725.718 1207.7978,-723.5757 1204.6108,-722.1983 1199.9436,-721.5858"/>
<polygon fill="#ffb20f" stroke="#ffb20f" points="1199.67,-718.0788 1189.5932,-721.3509 1199.5112,-725.077 1199.67,-718.0788"/>
<text text-anchor="middle" x="1233.7978" y="-722.018" font-family="Times,serif" font-size="14.00" fill="#ffb20f"> &#160;0, 0, L &#160;</text>
</g>
<!-- q6&#45;&gt;q6 -->
<g id="edge22" class="edge">
<title>q6&#45;&gt;q6</title>
<path fill="none" stroke="#1a936f" d="M1189.1015,-731.9489C1216.8958,-737.1231 1259.7978,-735.0461 1259.7978,-725.718 1259.7978,-717.4466 1226.0653,-714.8765 1199.0445,-718.0078"/>
<polygon fill="#1a936f" stroke="#1a936f" points="1198.4775,-714.5536 1189.1015,-719.4871 1199.5077,-721.4774 1198.4775,-714.5536"/>
<text text-anchor="middle" x="1285.7978" y="-722.018" font-family="Times,serif" font-size="14.00" fill="#1a936f"> &#160;1, 1, L &#160;</text>
</g>
<!-- q7 -->
<g id="node11" class="node">
<title>q7</title>
<ellipse fill="none" stroke="#555555" cx="1239.2996" cy="-626.6223" rx="19.4965" ry="19.4965"/>
<text text-anchor="middle" x="1239.2996" y="-622.9223" font-family="Times,serif" font-size="14.00" fill="#555555">q7</text>
</g>
<!-- q6&#45;&gt;q7 -->
<g id="edge23" class="edge">
<title>q6&#45;&gt;q7</title>
<path fill="none" stroke="#555555" d="M1181.6935,-709.3543C1192.746,-693.481 1209.6541,-669.1982 1222.2977,-651.0399"/>
<polygon fill="#555555" stroke="#555555" points="1225.2757,-652.888 1228.1176,-642.6814 1219.5311,-648.888 1225.2757,-652.888"/>
<text text-anchor="middle" x="1234.2996" y="-672.4701" font-family="Times,serif" font-size="14.00" fill="#555555"> &#160;#, #, L &#160;</text>
</g>
<!-- q10&#45;&gt;q10 -->
<g id="edge43" class="edge">
<title>q10&#45;&gt;q10</title>
<path fill="none" stroke="#555555" d="M1460.0739,-730.1784C1469.9639,-730.4861 1478.3474,-728.9992 1478.3474,-725.718 1478.3474,-723.6672 1475.0726,-722.3174 1470.2019,-721.6685"/>
<polygon fill="#555555" stroke="#555555" points="1470.2076,-718.1659 1460.0739,-721.2575 1469.9237,-725.1602 1470.2076,-718.1659"/>
<text text-anchor="middle" x="1504.3474" y="-722.018" font-family="Times,serif" font-size="14.00" fill="#555555"> &#160;0, 0, L &#160;</text>
</g>
<!-- q10&#45;&gt;q10 -->
<g id="edge44" class="edge">
<title>q10&#45;&gt;q10</title>
<path fill="none" stroke="#26547c" d="M1459.4388,-732.468C1488.7045,-736.968 1530.3474,-734.718 1530.3474,-725.718 1530.3474,-717.7024 1497.3157,-715.0409 1469.4151,-717.7337"/>
<polygon fill="#26547c" stroke="#26547c" points="1468.9333,-714.2665 1459.4388,-718.968 1469.7929,-721.2135 1468.9333,-714.2665"/>
<text text-anchor="middle" x="1556.3474" y="-722.018" font-family="Times,serif" font-size="14.00" fill="#26547c"> &#160;1, 1, L &#160;</text>
</g>
<!-- q11 -->
<g id="node16" class="node">
<title>q11</title>
<ellipse fill="none" stroke="#555555" cx="1500.2996" cy="-626.6223" rx="24.0958" ry="24.0958"/>
<text text-anchor="middle" x="1500.2996" y="-622.9223" font-family="Times,serif" font-size="14.00" fill="#555555">q11</text>
</g>
<!-- q10&#45;&gt;q11 -->
<g id="edge45" class="edge">
<title>q10&#45;&gt;q11</title>
<path fill="none" stroke="#ef476f" d="M1449.5604,-705.1853C1458.8281,-690.8354 1471.3337,-671.4722 1481.6104,-655.56"/>
<polygon fill="#ef476f" stroke="#ef476f" points="1484.5705,-657.4279 1487.0557,-647.1287 1478.6902,-653.6302 1484.5705,-657.4279"/>
<text text-anchor="middle" x="1497.2996" y="-672.4701" font-family="Times,serif" font-size="14.00" fill="#ef476f"> &#160;#, #, L &#160;</text>
</g>
<!-- q15&#45;&gt;q15 -->
<g id="edge63" class="edge">
<title>q15&#45;&gt;q15</title>
<path fill="none" stroke="#555555" d="M855.0739,-631.0827C864.9639,-631.3903 873.3474,-629.9035 873.3474,-626.6223 873.3474,-624.5715 870.0726,-623.2216 865.2019,-622.5728"/>
<polygon fill="#555555" stroke="#555555" points="865.2076,-619.0702 855.0739,-622.1618 864.9237,-626.0645 865.2076,-619.0702"/>
<text text-anchor="middle" x="902.3474" y="-622.9223" font-family="Times,serif" font-size="14.00" fill="#555555"> &#160;U, U, L &#160;</text>
</g>
<!-- q15&#45;&gt;q15 -->
<g id="edge64" class="edge">
<title>q15&#45;&gt;q15</title>
<path fill="none" stroke="#26547c" d="M854.8938,-633.3014C885.8593,-637.8955 931.3474,-635.6691 931.3474,-626.6223 931.3474,-618.5295 894.9485,-615.8945 865.1057,-618.7171"/>
<polygon fill="#26547c" stroke="#26547c" points="864.4052,-615.276 854.8938,-619.9431 865.2397,-622.2261 864.4052,-615.276"/>
<text text-anchor="middle" x="958.8474" y="-622.9223" font-family="Times,serif" font-size="14.00" fill="#26547c"> &#160;Z, Z, L &#160;</text>
</g>
<!-- q8 -->
<g id="node12" class="node">
<title>q8</title>
<ellipse fill="none" stroke="#555555" cx="1079.2996" cy="-527.5265" rx="19.4965" ry="19.4965"/>
<text text-anchor="middle" x="1079.2996" y="-523.8265" font-family="Times,serif" font-size="14.00" fill="#555555">q8</text>
</g>
<!-- q15&#45;&gt;q8 -->
<g id="edge68" class="edge">
<title>q15&#45;&gt;q8</title>
<path fill="none" stroke="#555555" d="M852.8821,-615.6479C877.335,-603.4614 918.5691,-583.6544 955.2996,-569.5744 980.502,-559.9135 987.7233,-560.197 1013.2996,-551.5744 1025.8127,-547.3558 1039.5483,-542.4036 1051.2334,-538.0931"/>
<polygon fill="#555555" stroke="#555555" points="1052.737,-541.2683 1060.8921,-534.5049 1050.2992,-534.7065 1052.737,-541.2683"/>
<text text-anchor="middle" x="982.7996" y="-573.3744" font-family="Times,serif" font-size="14.00" fill="#555555"> &#160;0, Z, R &#160;</text>
</g>
<!-- q9 -->
<g id="node13" class="node">
<title>q9</title>
<ellipse fill="none" stroke="#555555" cx="1500.2996" cy="-527.5265" rx="19.4965" ry="19.4965"/>
<text text-anchor="middle" x="1500.2996" y="-523.8265" font-family="Times,serif" font-size="14.00" fill="#555555">q9</text>
</g>
<!-- q15&#45;&gt;q9 -->
<g id="edge67" class="edge">
<title>q15&#45;&gt;q9</title>
<path fill="none" stroke="#1a936f" d="M855.4332,-625.224C921.7982,-621.1159 1105.7848,-607.883 1161.2996,-584.5744 1171.2195,-580.4094 1170.2496,-573.4151 1180.2996,-569.5744 1301.3423,-523.3167 1350.8213,-599.2828 1471.2996,-551.5744 1473.7472,-550.6051 1476.1421,-549.3462 1478.4402,-547.9126"/>
<polygon fill="#1a936f" stroke="#1a936f" points="1480.7857,-550.5307 1486.7318,-541.7617 1476.6151,-544.9087 1480.7857,-550.5307"/>
<text text-anchor="middle" x="1208.2996" y="-573.3744" font-family="Times,serif" font-size="14.00" fill="#1a936f"> &#160;1, U, R &#160;</text>
</g>
<!-- q16 -->
<g id="node18" class="node">
<title>q16</title>
<ellipse fill="none" stroke="#555555" cx="547.2996" cy="-527.5265" rx="24.0958" ry="24.0958"/>
<text text-anchor="middle" x="547.2996" y="-523.8265" font-family="Times,serif" font-size="14.00" fill="#555555">q16</text>
</g>
<!-- q15&#45;&gt;q16 -->
<g id="edge65" class="edge">
<title>q15&#45;&gt;q16</title>
<path fill="none" stroke="#ef476f" d="M808.5387,-618.6804C758.3741,-601.1765 638.1425,-559.2242 579.951,-538.9195"/>
<polygon fill="#ef476f" stroke="#ef476f" points="580.7636,-535.4962 570.1688,-535.5063 578.4574,-542.1054 580.7636,-535.4962"/>
<text text-anchor="middle" x="733.7996" y="-573.3744" font-family="Times,serif" font-size="14.00" fill="#ef476f"> &#160;#, #, R &#160;</text>
</g>
<!-- q15&#45;&gt;q16 -->
<g id="edge66" class="edge">
<title>q15&#45;&gt;q16</title>
<path fill="none" stroke="#ffb20f" d="M807.2087,-623.4831C758.3093,-616.861 649.1769,-600.7368 615.2996,-584.5744 598.9847,-576.7908 583.3437,-564.1623 571.1847,-552.7632"/>
<polygon fill="#ffb20f" stroke="#ffb20f" points="573.3356,-549.973 563.7251,-545.5132 568.4568,-554.9927 573.3356,-549.973"/>
<text text-anchor="middle" x="641.7996" y="-573.3744" font-family="Times,serif" font-size="14.00" fill="#ffb20f"> &#160;$, $, R &#160;</text>
</g>
<!-- q7&#45;&gt;q7 -->
<g id="edge24" class="edge">
<title>q7&#45;&gt;q7</title>
<path fill="none" stroke="#26547c" d="M1258.5932,-630.9893C1268.2152,-631.5936 1276.7978,-630.1379 1276.7978,-626.6223 1276.7978,-624.4799 1273.6108,-623.1025 1268.9436,-622.4901"/>
<polygon fill="#26547c" stroke="#26547c" points="1268.67,-618.983 1258.5932,-622.2552 1268.5112,-625.9812 1268.67,-618.983"/>
<text text-anchor="middle" x="1305.7978" y="-622.9223" font-family="Times,serif" font-size="14.00" fill="#26547c"> &#160;U, U, L &#160;</text>
</g>
<!-- q7&#45;&gt;q7 -->
<g id="edge25" class="edge">
<title>q7&#45;&gt;q7</title>
<path fill="none" stroke="#ef476f" d="M1257.9799,-632.695C1287.3303,-638.0684 1334.7978,-636.0441 1334.7978,-626.6223 1334.7978,-618.2309 1297.146,-615.7075 1268.1749,-619.0519"/>
<polygon fill="#ef476f" stroke="#ef476f" points="1267.365,-615.6332 1257.9799,-620.5496 1268.3825,-622.5589 1267.365,-615.6332"/>
<text text-anchor="middle" x="1362.2978" y="-622.9223" font-family="Times,serif" font-size="14.00" fill="#ef476f"> &#160;Z, Z, L &#160;</text>
</g>
<!-- q7&#45;&gt;q8 -->
<g id="edge26" class="edge">
<title>q7&#45;&gt;q8</title>
<path fill="none" stroke="#ffb20f" d="M1245.181,-607.797C1247.7375,-595.6702 1248.5344,-580.2362 1240.2996,-569.5744 1224.3457,-548.9189 1150.7075,-536.4742 1108.7611,-530.9397"/>
<polygon fill="#ffb20f" stroke="#ffb20f" points="1109.1949,-527.4668 1098.834,-529.6807 1108.3142,-534.4111 1109.1949,-527.4668"/>
<text text-anchor="middle" x="1272.7996" y="-573.3744" font-family="Times,serif" font-size="14.00" fill="#ffb20f"> &#160;0, Z, R &#160;</text>
</g>
<!-- q7&#45;&gt;q8 -->
<g id="edge27" class="edge">
<title>q7&#45;&gt;q8</title>
<path fill="none" stroke="#1a936f" d="M1219.7084,-625.0232C1191.9262,-621.8101 1140.8478,-612.2992 1108.2996,-584.5744 1099.4544,-577.0401 1092.9965,-566.1413 1088.4513,-555.8843"/>
<polygon fill="#1a936f" stroke="#1a936f" points="1091.6166,-554.3723 1084.6642,-546.3776 1085.1135,-556.9629 1091.6166,-554.3723"/>
<text text-anchor="middle" x="1134.7996" y="-573.3744" font-family="Times,serif" font-size="14.00" fill="#1a936f"> &#160;#, #, R &#160;</text>
</g>
<!-- q7&#45;&gt;q9 -->
<g id="edge28" class="edge">
<title>q7&#45;&gt;q9</title>
<path fill="none" stroke="#555555" d="M1256.1608,-616.7038C1278.8306,-603.8203 1320.7527,-581.5644 1359.2996,-569.5744 1407.441,-554.6 1425.3855,-572.4005 1471.2996,-551.5744 1473.697,-550.4869 1476.0575,-549.147 1478.3333,-547.6608"/>
<polygon fill="#555555" stroke="#555555" points="1480.717,-550.2467 1486.5906,-541.429 1476.5002,-544.6593 1480.717,-550.2467"/>
<text text-anchor="middle" x="1387.2996" y="-573.3744" font-family="Times,serif" font-size="14.00" fill="#555555"> &#160;1, U, R &#160;</text>
</g>
<!-- q8&#45;&gt;q8 -->
<g id="edge29" class="edge">
<title>q8&#45;&gt;q8</title>
<path fill="none" stroke="#26547c" d="M1098.9775,-529.2826C1108.4425,-529.4994 1116.7978,-528.914 1116.7978,-527.5265 1116.7978,-526.681 1113.6952,-526.1334 1109.1294,-525.8836"/>
<polygon fill="#26547c" stroke="#26547c" points="1109.0159,-522.3822 1098.9775,-525.7705 1108.9378,-529.3818 1109.0159,-522.3822"/>
<text text-anchor="middle" x="1143.2978" y="-523.8265" font-family="Times,serif" font-size="14.00" fill="#26547c"> &#160;#, #, R &#160;</text>
</g>
<!-- q8&#45;&gt;q8 -->
<g id="edge30" class="edge">
<title>q8&#45;&gt;q8</title>
<path fill="none" stroke="#ef476f" d="M1098.6524,-530.0499C1126.7277,-532.0801 1169.7978,-531.239 1169.7978,-527.5265 1169.7978,-524.2346 1135.9331,-523.2003 1108.6864,-524.4238"/>
<polygon fill="#ef476f" stroke="#ef476f" points="1108.4339,-520.9324 1098.6524,-525.0032 1108.8375,-527.9208 1108.4339,-520.9324"/>
<text text-anchor="middle" x="1196.2978" y="-523.8265" font-family="Times,serif" font-size="14.00" fill="#ef476f"> &#160;1, 1, R &#160;</text>
</g>
<!-- q8&#45;&gt;q8 -->
<g id="edge31" class="edge">
<title>q8&#45;&gt;q8</title>
<path fill="none" stroke="#ffb20f" d="M1098.6317,-530.5452C1140.4178,-534.5234 1222.7978,-533.5172 1222.7978,-527.5265 1222.7978,-521.9922 1152.4899,-520.7119 1108.8327,-523.6855"/>
<polygon fill="#ffb20f" stroke="#ffb20f" points="1108.3181,-520.2155 1098.6317,-524.5078 1108.8806,-527.1929 1108.3181,-520.2155"/>
<text text-anchor="middle" x="1249.2978" y="-523.8265" font-family="Times,serif" font-size="14.00" fill="#ffb20f"> &#160;0, 0, R &#160;</text>
</g>
<!-- q8&#45;&gt;q8 -->
<g id="edge32" class="edge">
<title>q8&#45;&gt;q8</title>
<path fill="none" stroke="#1a936f" d="M1098.6369,-530.9257C1152.0864,-536.9471 1275.7978,-535.814 1275.7978,-527.5265 1275.7978,-519.7246 1166.1591,-518.2633 1108.7169,-523.1426"/>
<polygon fill="#1a936f" stroke="#1a936f" points="1108.2491,-519.6715 1098.6369,-524.1274 1108.9298,-526.6384 1108.2491,-519.6715"/>
<text text-anchor="middle" x="1303.7978" y="-523.8265" font-family="Times,serif" font-size="14.00" fill="#1a936f"> &#160;Z, Z, R &#160;</text>
</g>
<!-- q8&#45;&gt;q8 -->
<g id="edge33" class="edge">
<title>q8&#45;&gt;q8</title>
<path fill="none" stroke="#555555" d="M1098.463,-531.1969C1162.7117,-539.3672 1331.7978,-538.1437 1331.7978,-527.5265 1331.7978,-517.4278 1178.8209,-515.8278 1108.5924,-522.7265"/>
<polygon fill="#555555" stroke="#555555" points="1108.0135,-519.2693 1098.463,-523.8561 1108.7894,-526.2262 1108.0135,-519.2693"/>
<text text-anchor="middle" x="1361.2978" y="-523.8265" font-family="Times,serif" font-size="14.00" fill="#555555"> &#160;U, U, R &#160;</text>
</g>
<!-- q14 -->
<g id="node14" class="node">
<title>q14</title>
<ellipse fill="none" stroke="#555555" cx="1404.2996" cy="-329.3351" rx="24.0958" ry="24.0958"/>
<text text-anchor="middle" x="1404.2996" y="-325.6351" font-family="Times,serif" font-size="14.00" fill="#555555">q14</text>
</g>
<!-- q8&#45;&gt;q14 -->
<g id="edge34" class="edge">
<title>q8&#45;&gt;q14</title>
<path fill="none" stroke="#26547c" d="M1096.4221,-518.0469C1141.9738,-492.6721 1269.5967,-420.5618 1371.2996,-353.3829 1372.9853,-352.2694 1374.7048,-351.1057 1376.4295,-349.9169"/>
<polygon fill="#26547c" stroke="#26547c" points="1378.8227,-352.5112 1384.9655,-343.8789 1374.7802,-346.7965 1378.8227,-352.5112"/>
<text text-anchor="middle" x="1314.7996" y="-424.7308" font-family="Times,serif" font-size="14.00" fill="#26547c"> &#160;B, 0, L &#160;</text>
</g>
<!-- q8&#45;&gt;q14 -->
<g id="edge35" class="edge">
<title>q8&#45;&gt;q14</title>
<path fill="none" stroke="#ef476f" d="M1086.1733,-508.8701C1097.23,-481.5497 1121.6195,-431.0208 1159.2996,-404.3829 1238.4324,-348.4401 1283.3294,-394.0384 1371.2996,-353.3829 1373.1335,-352.5354 1374.9682,-351.5785 1376.7806,-350.5471"/>
<polygon fill="#ef476f" stroke="#ef476f" points="1379.0175,-353.2708 1385.5515,-344.9308 1375.2427,-347.3758 1379.0175,-353.2708"/>
<text text-anchor="middle" x="1184.2996" y="-424.7308" font-family="Times,serif" font-size="14.00" fill="#ef476f"> &#160;I, 1, L &#160;</text>
</g>
<!-- q9&#45;&gt;q9 -->
<g id="edge36" class="edge">
<title>q9&#45;&gt;q9</title>
<path fill="none" stroke="#ffb20f" d="M1519.9775,-529.2826C1529.4425,-529.4994 1537.7978,-528.914 1537.7978,-527.5265 1537.7978,-526.681 1534.6952,-526.1334 1530.1294,-525.8836"/>
<polygon fill="#ffb20f" stroke="#ffb20f" points="1530.0159,-522.3822 1519.9775,-525.7705 1529.9378,-529.3818 1530.0159,-522.3822"/>
<text text-anchor="middle" x="1564.2978" y="-523.8265" font-family="Times,serif" font-size="14.00" fill="#ffb20f"> &#160;#, #, R &#160;</text>
</g>
<!-- q9&#45;&gt;q9 -->
<g id="edge37" class="edge">
<title>q9&#45;&gt;q9</title>
<path fill="none" stroke="#1a936f" d="M1519.6524,-530.0499C1547.7277,-532.0801 1590.7978,-531.239 1590.7978,-527.5265 1590.7978,-524.2346 1556.9331,-523.2003 1529.6864,-524.4238"/>
<polygon fill="#1a936f" stroke="#1a936f" points="1529.4339,-520.9324 1519.6524,-525.0032 1529.8375,-527.9208 1529.4339,-520.9324"/>
<text text-anchor="middle" x="1617.2978" y="-523.8265" font-family="Times,serif" font-size="14.00" fill="#1a936f"> &#160;1, 1, R &#160;</text>
</g>
<!-- q9&#45;&gt;q9 -->
<g id="edge38" class="edge">
<title>q9&#45;&gt;q9</title>
<path fill="none" stroke="#555555" d="M1519.6317,-530.5452C1561.4178,-534.5234 1643.7978,-533.5172 1643.7978,-527.5265 1643.7978,-521.9922 1573.4899,-520.7119 1529.8327,-523.6855"/>
<polygon fill="#555555" stroke="#555555" points="1529.3181,-520.2155 1519.6317,-524.5078 1529.8806,-527.1929 1529.3181,-520.2155"/>
<text text-anchor="middle" x="1670.2978" y="-523.8265" font-family="Times,serif" font-size="14.00" fill="#555555"> &#160;0, 0, R &#160;</text>
</g>
<!-- q9&#45;&gt;q9 -->
<g id="edge39" class="edge">
<title>q9&#45;&gt;q9</title>
<path fill="none" stroke="#26547c" d="M1519.6369,-530.9257C1573.0864,-536.9471 1696.7978,-535.814 1696.7978,-527.5265 1696.7978,-519.7246 1587.1591,-518.2633 1529.7169,-523.1426"/>
<polygon fill="#26547c" stroke="#26547c" points="1529.2491,-519.6715 1519.6369,-524.1274 1529.9298,-526.6384 1529.2491,-519.6715"/>
<text text-anchor="middle" x="1724.7978" y="-523.8265" font-family="Times,serif" font-size="14.00" fill="#26547c"> &#160;Z, Z, R &#160;</text>
</g>
<!-- q9&#45;&gt;q9 -->
<g id="edge40" class="edge">
<title>q9&#45;&gt;q9</title>
<path fill="none" stroke="#ef476f" d="M1519.463,-531.1969C1583.7117,-539.3672 1752.7978,-538.1437 1752.7978,-527.5265 1752.7978,-517.4278 1599.8209,-515.8278 1529.5924,-522.7265"/>
<polygon fill="#ef476f" stroke="#ef476f" points="1529.0135,-519.2693 1519.463,-523.8561 1529.7894,-526.2262 1529.0135,-519.2693"/>
<text text-anchor="middle" x="1782.2978" y="-523.8265" font-family="Times,serif" font-size="14.00" fill="#ef476f"> &#160;U, U, R &#160;</text>
</g>
<!-- q9&#45;&gt;q14 -->
<g id="edge41" class="edge">
<title>q9&#45;&gt;q14</title>
<path fill="none" stroke="#ffb20f" d="M1491.7802,-509.9384C1475.4751,-476.2765 1439.6686,-402.3543 1419.2811,-360.2645"/>
<polygon fill="#ffb20f" stroke="#ffb20f" points="1422.3234,-358.5163 1414.8141,-351.0422 1416.0235,-361.5678 1422.3234,-358.5163"/>
<text text-anchor="middle" x="1490.7996" y="-424.7308" font-family="Times,serif" font-size="14.00" fill="#ffb20f"> &#160;B, 1, L &#160;</text>
</g>
<!-- q13 -->
<g id="node15" class="node">
<title>q13</title>
<ellipse fill="none" stroke="#555555" cx="1570.2996" cy="-428.4308" rx="24.0958" ry="24.0958"/>
<text text-anchor="middle" x="1570.2996" y="-424.7308" font-family="Times,serif" font-size="14.00" fill="#555555">q13</text>
</g>
<!-- q9&#45;&gt;q13 -->
<g id="edge42" class="edge">
<title>q9&#45;&gt;q13</title>
<path fill="none" stroke="#1a936f" d="M1511.8586,-511.1629C1522.3372,-496.3289 1538.0037,-474.1506 1550.4789,-456.4899"/>
<polygon fill="#1a936f" stroke="#1a936f" points="1553.3992,-458.4221 1556.3101,-448.235 1547.6818,-454.3834 1553.3992,-458.4221"/>
<text text-anchor="middle" x="1564.7996" y="-474.2787" font-family="Times,serif" font-size="14.00" fill="#1a936f"> &#160;I, 0, R &#160;</text>
</g>
<!-- q14&#45;&gt;q5 -->
<g id="edge62" class="edge">
<title>q14&#45;&gt;q5</title>
<path fill="none" stroke="#1a936f" d="M1386.1187,-345.1936C1381.5496,-348.4156 1376.4674,-351.4163 1371.2996,-353.3829 1299.1875,-380.8254 1032.2996,-351.2735 1032.2996,-428.4308 1032.2996,-725.718 1032.2996,-725.718 1032.2996,-725.718 1032.2996,-747.9484 1036.653,-772.7121 1040.8182,-791.3176"/>
<polygon fill="#1a936f" stroke="#1a936f" points="1037.4527,-792.2962 1043.149,-801.2295 1044.2669,-790.6938 1037.4527,-792.2962"/>
<text text-anchor="middle" x="1058.2996" y="-573.3744" font-family="Times,serif" font-size="14.00" fill="#1a936f"> &#160;#, #, L &#160;</text>
</g>
<!-- q14&#45;&gt;q14 -->
<g id="edge60" class="edge">
<title>q14&#45;&gt;q14</title>
<path fill="none" stroke="#ef476f" d="M1428.0739,-333.7955C1437.9639,-334.1031 1446.3474,-332.6163 1446.3474,-329.3351 1446.3474,-327.2843 1443.0726,-325.9345 1438.2019,-325.2856"/>
<polygon fill="#ef476f" stroke="#ef476f" points="1438.2076,-321.783 1428.0739,-324.8746 1437.9237,-328.7773 1438.2076,-321.783"/>
<text text-anchor="middle" x="1472.3474" y="-325.6351" font-family="Times,serif" font-size="14.00" fill="#ef476f"> &#160;0, 0, L &#160;</text>
</g>
<!-- q14&#45;&gt;q14 -->
<g id="edge61" class="edge">
<title>q14&#45;&gt;q14</title>
<path fill="none" stroke="#ffb20f" d="M1427.4388,-336.0851C1456.7045,-340.5851 1498.3474,-338.3351 1498.3474,-329.3351 1498.3474,-321.3194 1465.3157,-318.658 1437.4151,-321.3507"/>
<polygon fill="#ffb20f" stroke="#ffb20f" points="1436.9333,-317.8836 1427.4388,-322.5851 1437.7929,-324.8306 1436.9333,-317.8836"/>
<text text-anchor="middle" x="1524.3474" y="-325.6351" font-family="Times,serif" font-size="14.00" fill="#ffb20f"> &#160;1, 1, L &#160;</text>
</g>
<!-- q13&#45;&gt;q14 -->
<g id="edge59" class="edge">
<title>q13&#45;&gt;q14</title>
<path fill="none" stroke="#26547c" d="M1550.3187,-414.8187C1532.6693,-402.9547 1506.1104,-385.4877 1482.2996,-371.3829 1466.8817,-362.2499 1449.3454,-352.7226 1434.8107,-345.0508"/>
<polygon fill="#26547c" stroke="#26547c" points="1436.2273,-341.8417 1425.7452,-340.3 1432.9781,-348.0419 1436.2273,-341.8417"/>
<text text-anchor="middle" x="1530.2996" y="-375.1829" font-family="Times,serif" font-size="14.00" fill="#26547c"> &#160;B, I, L &#160;</text>
</g>
<!-- q11&#45;&gt;q9 -->
<g id="edge48" class="edge">
<title>q11&#45;&gt;q9</title>
<path fill="none" stroke="#555555" d="M1477.0709,-620.29C1448.7872,-611.3764 1406.7157,-593.5049 1423.2996,-569.5744 1436.2772,-550.8476 1451.5902,-563.0047 1471.2996,-551.5744 1473.5274,-550.2824 1475.7559,-548.8189 1477.9323,-547.2673"/>
<polygon fill="#555555" stroke="#555555" points="1480.2139,-549.9267 1485.9555,-541.0224 1475.9144,-544.4027 1480.2139,-549.9267"/>
<text text-anchor="middle" x="1450.7996" y="-573.3744" font-family="Times,serif" font-size="14.00" fill="#555555"> &#160;0, Z, R &#160;</text>
</g>
<!-- q11&#45;&gt;q9 -->
<g id="edge49" class="edge">
<title>q11&#45;&gt;q9</title>
<path fill="none" stroke="#26547c" d="M1500.2996,-602.3807C1500.2996,-588.8653 1500.2996,-571.9159 1500.2996,-557.565"/>
<polygon fill="#26547c" stroke="#26547c" points="1503.7997,-557.1972 1500.2996,-547.1972 1496.7997,-557.1972 1503.7997,-557.1972"/>
<text text-anchor="middle" x="1526.7996" y="-573.3744" font-family="Times,serif" font-size="14.00" fill="#26547c"> &#160;#, #, R &#160;</text>
</g>
<!-- q11&#45;&gt;q9 -->
<g id="edge50" class="edge">
<title>q11&#45;&gt;q9</title>
<path fill="none" stroke="#ef476f" d="M1522.0139,-616.0122C1533.9099,-608.9146 1547.5691,-598.3454 1554.2996,-584.5744 1562.9176,-566.9414 1544.7805,-551.1049 1527.2464,-540.6176"/>
<polygon fill="#ef476f" stroke="#ef476f" points="1528.7192,-537.4321 1518.277,-535.6398 1525.3224,-543.5527 1528.7192,-537.4321"/>
<text text-anchor="middle" x="1582.7996" y="-573.3744" font-family="Times,serif" font-size="14.00" fill="#ef476f"> &#160;$, $, R &#160;</text>
</g>
<!-- q11&#45;&gt;q11 -->
<g id="edge46" class="edge">
<title>q11&#45;&gt;q11</title>
<path fill="none" stroke="#ffb20f" d="M1524.0739,-631.0827C1533.9639,-631.3903 1542.3474,-629.9035 1542.3474,-626.6223 1542.3474,-624.5715 1539.0726,-623.2216 1534.2019,-622.5728"/>
<polygon fill="#ffb20f" stroke="#ffb20f" points="1534.2076,-619.0702 1524.0739,-622.1618 1533.9237,-626.0645 1534.2076,-619.0702"/>
<text text-anchor="middle" x="1571.3474" y="-622.9223" font-family="Times,serif" font-size="14.00" fill="#ffb20f"> &#160;U, U, L &#160;</text>
</g>
<!-- q11&#45;&gt;q11 -->
<g id="edge47" class="edge">
<title>q11&#45;&gt;q11</title>
<path fill="none" stroke="#1a936f" d="M1523.8938,-633.3014C1554.8593,-637.8955 1600.3474,-635.6691 1600.3474,-626.6223 1600.3474,-618.5295 1563.9485,-615.8945 1534.1057,-618.7171"/>
<polygon fill="#1a936f" stroke="#1a936f" points="1533.4052,-615.276 1523.8938,-619.9431 1534.2397,-622.2261 1533.4052,-615.276"/>
<text text-anchor="middle" x="1627.8474" y="-622.9223" font-family="Times,serif" font-size="14.00" fill="#1a936f"> &#160;Z, Z, L &#160;</text>
</g>
<!-- q12 -->
<g id="node17" class="node">
<title>q12</title>
<ellipse fill="none" stroke="#555555" cx="1926.2996" cy="-527.5265" rx="24.0958" ry="24.0958"/>
<text text-anchor="middle" x="1926.2996" y="-523.8265" font-family="Times,serif" font-size="14.00" fill="#555555">q12</text>
</g>
<!-- q11&#45;&gt;q12 -->
<g id="edge51" class="edge">
<title>q11&#45;&gt;q12</title>
<path fill="none" stroke="#ffb20f" d="M1524.7483,-625.5231C1588.0096,-621.9342 1761.2783,-607.3374 1892.2996,-551.5744 1894.4076,-550.6772 1896.5147,-549.6337 1898.5888,-548.4938"/>
<polygon fill="#ffb20f" stroke="#ffb20f" points="1900.7263,-551.2862 1907.3713,-543.0343 1897.0306,-545.3413 1900.7263,-551.2862"/>
<text text-anchor="middle" x="1869.2996" y="-573.3744" font-family="Times,serif" font-size="14.00" fill="#ffb20f"> &#160;1, U, R &#160;</text>
</g>
<!-- q12&#45;&gt;q13 -->
<g id="edge57" class="edge">
<title>q12&#45;&gt;q13</title>
<path fill="none" stroke="#1a936f" d="M1907.1002,-512.5927C1902.412,-509.3326 1897.3017,-506.0828 1892.2996,-503.4787 1795.7581,-453.218 1665.5766,-436.2396 1604.5523,-430.8139"/>
<polygon fill="#1a936f" stroke="#1a936f" points="1604.5881,-427.3047 1594.3306,-429.9568 1604.0031,-434.2802 1604.5881,-427.3047"/>
<text text-anchor="middle" x="1878.7996" y="-474.2787" font-family="Times,serif" font-size="14.00" fill="#1a936f"> &#160;B, 0, R &#160;</text>
</g>
<!-- q12&#45;&gt;q13 -->
<g id="edge58" class="edge">
<title>q12&#45;&gt;q13</title>
<path fill="none" stroke="#555555" d="M1907.8121,-512.0723C1903.0156,-508.7519 1897.6782,-505.6058 1892.2996,-503.4787 1838.0581,-482.0278 1819.3079,-497.8205 1762.2996,-485.4787 1705.2066,-473.1185 1640.367,-452.4149 1602.5319,-439.6402"/>
<polygon fill="#555555" stroke="#555555" points="1603.6551,-436.3253 1593.0606,-436.417 1601.3999,-442.9521 1603.6551,-436.3253"/>
<text text-anchor="middle" x="1787.7996" y="-474.2787" font-family="Times,serif" font-size="14.00" fill="#555555"> &#160;I, 1, R &#160;</text>
</g>
<!-- q12&#45;&gt;q12 -->
<g id="edge52" class="edge">
<title>q12&#45;&gt;q12</title>
<path fill="none" stroke="#1a936f" d="M1950.4968,-529.3155C1960.2017,-529.4166 1968.3474,-528.8203 1968.3474,-527.5265 1968.3474,-526.7381 1965.3226,-526.2087 1960.7634,-525.9383"/>
<polygon fill="#1a936f" stroke="#1a936f" points="1960.5633,-522.4338 1950.4968,-525.7375 1960.4264,-529.4325 1960.5633,-522.4338"/>
<text text-anchor="middle" x="1994.8474" y="-523.8265" font-family="Times,serif" font-size="14.00" fill="#1a936f"> &#160;#, #, R &#160;</text>
</g>
<!-- q12&#45;&gt;q12 -->
<g id="edge53" class="edge">
<title>q12&#45;&gt;q12</title>
<path fill="none" stroke="#555555" d="M1950.5224,-530.2819C1980.0167,-532.0075 2021.3474,-531.089 2021.3474,-527.5265 2021.3474,-524.3537 1988.5633,-523.2781 1960.5554,-524.2998"/>
<polygon fill="#555555" stroke="#555555" points="1960.3471,-520.8057 1950.5224,-524.7712 1960.6757,-527.798 1960.3471,-520.8057"/>
<text text-anchor="middle" x="2047.8474" y="-523.8265" font-family="Times,serif" font-size="14.00" fill="#555555"> &#160;1, 1, R &#160;</text>
</g>
<!-- q12&#45;&gt;q12 -->
<g id="edge54" class="edge">
<title>q12&#45;&gt;q12</title>
<path fill="none" stroke="#26547c" d="M1950.2624,-530.8696C1994.56,-534.4627 2074.3474,-533.3484 2074.3474,-527.5265 2074.3474,-522.1254 2005.6751,-520.776 1960.3785,-523.4783"/>
<polygon fill="#26547c" stroke="#26547c" points="1959.9947,-519.9964 1950.2624,-524.1835 1960.4816,-526.9795 1959.9947,-519.9964"/>
<text text-anchor="middle" x="2100.8474" y="-523.8265" font-family="Times,serif" font-size="14.00" fill="#26547c"> &#160;0, 0, R &#160;</text>
</g>
<!-- q12&#45;&gt;q12 -->
<g id="edge55" class="edge">
<title>q12&#45;&gt;q12</title>
<path fill="none" stroke="#ef476f" d="M1950.1749,-531.3234C2007.0112,-536.8922 2127.3474,-535.6265 2127.3474,-527.5265 2127.3474,-519.8853 2020.257,-518.3262 1960.4104,-522.8492"/>
<polygon fill="#ef476f" stroke="#ef476f" points="1959.8381,-519.3854 1950.1749,-523.7297 1960.4381,-526.3596 1959.8381,-519.3854"/>
<text text-anchor="middle" x="2155.3474" y="-523.8265" font-family="Times,serif" font-size="14.00" fill="#ef476f"> &#160;Z, Z, R &#160;</text>
</g>
<!-- q12&#45;&gt;q12 -->
<g id="edge56" class="edge">
<title>q12&#45;&gt;q12</title>
<path fill="none" stroke="#ffb20f" d="M1950.0883,-531.6728C2018.6323,-539.3149 2183.3474,-537.9328 2183.3474,-527.5265 2183.3474,-517.6081 2033.7124,-515.8876 1960.3343,-522.3651"/>
<polygon fill="#ffb20f" stroke="#ffb20f" points="1959.6944,-518.9113 1950.0883,-523.3803 1960.3846,-525.8772 1959.6944,-518.9113"/>
<text text-anchor="middle" x="2212.8474" y="-523.8265" font-family="Times,serif" font-size="14.00" fill="#ffb20f"> &#160;U, U, R &#160;</text>
</g>
<!-- q16&#45;&gt;q16 -->
<g id="edge69" class="edge">
<title>q16&#45;&gt;q16</title>
<path fill="none" stroke="#26547c" d="M571.4968,-529.0174C581.2017,-529.1016 589.3474,-528.6047 589.3474,-527.5265 589.3474,-526.8695 586.3226,-526.4284 581.7634,-526.203"/>
<polygon fill="#26547c" stroke="#26547c" points="581.5525,-522.6992 571.4968,-526.0357 581.4384,-529.6983 581.5525,-522.6992"/>
<text text-anchor="middle" x="615.8474" y="-523.8265" font-family="Times,serif" font-size="14.00" fill="#26547c"> &#160;#, #, R &#160;</text>
</g>
<!-- q16&#45;&gt;q16 -->
<g id="edge70" class="edge">
<title>q16&#45;&gt;q16</title>
<path fill="none" stroke="#ef476f" d="M571.5224,-529.8227C601.0167,-531.2607 642.3474,-530.4953 642.3474,-527.5265 642.3474,-524.8825 609.5633,-523.9862 581.5554,-524.8376"/>
<polygon fill="#ef476f" stroke="#ef476f" points="581.3778,-521.3418 571.5224,-525.2304 581.6517,-528.3364 581.3778,-521.3418"/>
<text text-anchor="middle" x="668.8474" y="-523.8265" font-family="Times,serif" font-size="14.00" fill="#ef476f"> &#160;1, 1, R &#160;</text>
</g>
<!-- q16&#45;&gt;q16 -->
<g id="edge71" class="edge">
<title>q16&#45;&gt;q16</title>
<path fill="none" stroke="#ffb20f" d="M571.2624,-530.3124C615.56,-533.3067 695.3474,-532.3781 695.3474,-527.5265 695.3474,-523.0256 626.6751,-521.901 581.3785,-524.153"/>
<polygon fill="#ffb20f" stroke="#ffb20f" points="581.0425,-520.6665 571.2624,-524.7407 581.4486,-527.6547 581.0425,-520.6665"/>
<text text-anchor="middle" x="721.8474" y="-523.8265" font-family="Times,serif" font-size="14.00" fill="#ffb20f"> &#160;0, 0, R &#160;</text>
</g>
<!-- q16&#45;&gt;q16 -->
<g id="edge72" class="edge">
<title>q16&#45;&gt;q16</title>
<path fill="none" stroke="#1a936f" d="M571.1749,-530.6906C628.0112,-535.3312 748.3474,-534.2765 748.3474,-527.5265 748.3474,-521.1589 641.257,-519.8596 581.4104,-523.6287"/>
<polygon fill="#1a936f" stroke="#1a936f" points="580.899,-520.1563 571.1749,-524.3625 581.3996,-527.1384 580.899,-520.1563"/>
<text text-anchor="middle" x="776.3474" y="-523.8265" font-family="Times,serif" font-size="14.00" fill="#1a936f"> &#160;Z, Z, R &#160;</text>
</g>
<!-- q16&#45;&gt;q16 -->
<g id="edge73" class="edge">
<title>q16&#45;&gt;q16</title>
<path fill="none" stroke="#555555" d="M571.5528,-531.0246C640.3734,-537.3449 804.3474,-536.1789 804.3474,-527.5265 804.3474,-519.2798 655.3857,-517.8339 581.8313,-523.189"/>
<polygon fill="#555555" stroke="#555555" points="581.2347,-519.7259 571.5528,-524.0284 581.8046,-526.7027 581.2347,-519.7259"/>
<text text-anchor="middle" x="833.8474" y="-523.8265" font-family="Times,serif" font-size="14.00" fill="#555555"> &#160;U, U, R &#160;</text>
</g>
<!-- q16&#45;&gt;q16 -->
<g id="edge75" class="edge">
<title>q16&#45;&gt;q16</title>
<path fill="none" stroke="#ef476f" d="M571.0982,-531.2239C650.8679,-539.3645 863.3474,-538.132 863.3474,-527.5265 863.3474,-517.3457 667.5422,-515.8023 581.296,-522.8964"/>
<polygon fill="#ef476f" stroke="#ef476f" points="580.7378,-519.4327 571.0982,-523.8291 581.3755,-526.4036 580.7378,-519.4327"/>
<text text-anchor="middle" x="888.8474" y="-523.8265" font-family="Times,serif" font-size="14.00" fill="#ef476f"> &#160;I, 1, R &#160;</text>
</g>
<!-- q17 -->
<g id="node19" class="node">
<title>q17</title>
<ellipse fill="none" stroke="#555555" cx="534.2996" cy="-428.4308" rx="24.0958" ry="24.0958"/>
<text text-anchor="middle" x="534.2996" y="-424.7308" font-family="Times,serif" font-size="14.00" fill="#555555">q17</text>
</g>
<!-- q16&#45;&gt;q17 -->
<g id="edge74" class="edge">
<title>q16&#45;&gt;q17</title>
<path fill="none" stroke="#26547c" d="M544.1526,-503.5382C542.5358,-491.2139 540.5379,-475.9844 538.7647,-462.4676"/>
<polygon fill="#26547c" stroke="#26547c" points="542.2336,-462.0014 537.4626,-452.5417 535.2931,-462.912 542.2336,-462.0014"/>
<text text-anchor="middle" x="570.7996" y="-474.2787" font-family="Times,serif" font-size="14.00" fill="#26547c"> &#160;B, C, L &#160;</text>
</g>
<!-- q17&#45;&gt;q17 -->
<g id="edge76" class="edge">
<title>q17&#45;&gt;q17</title>
<path fill="none" stroke="#ffb20f" d="M558.0739,-432.8912C567.9639,-433.1989 576.3474,-431.712 576.3474,-428.4308 576.3474,-426.38 573.0726,-425.0302 568.2019,-424.3813"/>
<polygon fill="#ffb20f" stroke="#ffb20f" points="568.2076,-420.8787 558.0739,-423.9703 567.9237,-427.873 568.2076,-420.8787"/>
<text text-anchor="middle" x="603.8474" y="-424.7308" font-family="Times,serif" font-size="14.00" fill="#ffb20f"> &#160;Z, Z, L &#160;</text>
</g>
<!-- q17&#45;&gt;q17 -->
<g id="edge77" class="edge">
<title>q17&#45;&gt;q17</title>
<path fill="none" stroke="#1a936f" d="M557.4381,-435.1099C587.5644,-439.7041 631.3474,-437.4777 631.3474,-428.4308 631.3474,-420.3734 596.6182,-417.7262 567.7383,-420.489"/>
<polygon fill="#1a936f" stroke="#1a936f" points="566.9379,-417.0608 557.4381,-421.7517 567.7897,-424.0088 566.9379,-417.0608"/>
<text text-anchor="middle" x="660.3474" y="-424.7308" font-family="Times,serif" font-size="14.00" fill="#1a936f"> &#160;U, U, L &#160;</text>
</g>
<!-- q18 -->
<g id="node20" class="node">
<title>q18</title>
<ellipse fill="none" stroke="#555555" cx="99.2996" cy="-329.3351" rx="24.0958" ry="24.0958"/>
<text text-anchor="middle" x="99.2996" y="-325.6351" font-family="Times,serif" font-size="14.00" fill="#555555">q18</text>
</g>
<!-- q17&#45;&gt;q18 -->
<g id="edge78" class="edge">
<title>q17&#45;&gt;q18</title>
<path fill="none" stroke="#555555" d="M510.6031,-423.0326C437.7594,-406.4383 216.9646,-356.1399 132.5785,-336.9162"/>
<polygon fill="#555555" stroke="#555555" points="133.2797,-333.4864 122.7521,-334.6777 131.7248,-340.3115 133.2797,-333.4864"/>
<text text-anchor="middle" x="371.2996" y="-375.1829" font-family="Times,serif" font-size="14.00" fill="#555555"> &#160;1, U, R &#160;</text>
</g>
<!-- q20 -->
<g id="node21" class="node">
<title>q20</title>
<ellipse fill="none" stroke="#555555" cx="534.2996" cy="-329.3351" rx="24.0958" ry="24.0958"/>
<text text-anchor="middle" x="534.2996" y="-325.6351" font-family="Times,serif" font-size="14.00" fill="#555555">q20</text>
</g>
<!-- q17&#45;&gt;q20 -->
<g id="edge79" class="edge">
<title>q17&#45;&gt;q20</title>
<path fill="none" stroke="#26547c" d="M534.2996,-404.1893C534.2996,-392.0723 534.2996,-377.1952 534.2996,-363.905"/>
<polygon fill="#26547c" stroke="#26547c" points="537.7997,-363.6698 534.2996,-353.6698 530.7997,-363.6698 537.7997,-363.6698"/>
<text text-anchor="middle" x="561.7996" y="-375.1829" font-family="Times,serif" font-size="14.00" fill="#26547c"> &#160;0, Z, R &#160;</text>
</g>
<!-- q21 -->
<g id="node22" class="node">
<title>q21</title>
<ellipse fill="none" stroke="#555555" cx="969.2996" cy="-329.3351" rx="24.0958" ry="24.0958"/>
<text text-anchor="middle" x="969.2996" y="-325.6351" font-family="Times,serif" font-size="14.00" fill="#555555">q21</text>
</g>
<!-- q17&#45;&gt;q21 -->
<g id="edge80" class="edge">
<title>q17&#45;&gt;q21</title>
<path fill="none" stroke="#ef476f" d="M558.477,-427.6101C622.6687,-424.666 801.6749,-411.4399 936.2996,-353.3829 938.1548,-352.5829 940.0059,-351.6629 941.8309,-350.6596"/>
<polygon fill="#ef476f" stroke="#ef476f" points="944.0362,-353.4073 950.6355,-345.1187 940.3077,-347.4828 944.0362,-353.4073"/>
<text text-anchor="middle" x="910.7996" y="-375.1829" font-family="Times,serif" font-size="14.00" fill="#ef476f"> &#160;#, #, R &#160;</text>
</g>
<!-- q18&#45;&gt;q18 -->
<g id="edge81" class="edge">
<title>q18&#45;&gt;q18</title>
<path fill="none" stroke="#ffb20f" d="M123.4968,-331.1241C133.2017,-331.2252 141.3474,-330.6288 141.3474,-329.3351 141.3474,-328.5467 138.3226,-328.0173 133.7634,-327.7469"/>
<polygon fill="#ffb20f" stroke="#ffb20f" points="133.5633,-324.2424 123.4968,-327.546 133.4264,-331.241 133.5633,-324.2424"/>
<text text-anchor="middle" x="170.3474" y="-325.6351" font-family="Times,serif" font-size="14.00" fill="#ffb20f"> &#160;C, C, R &#160;</text>
</g>
<!-- q18&#45;&gt;q18 -->
<g id="edge82" class="edge">
<title>q18&#45;&gt;q18</title>
<path fill="none" stroke="#1a936f" d="M123.3763,-332.0351C154.3295,-333.8351 199.3474,-332.9351 199.3474,-329.3351 199.3474,-326.1148 163.3247,-325.0549 133.5701,-326.1556"/>
<polygon fill="#1a936f" stroke="#1a936f" points="133.2008,-322.669 123.3763,-326.6351 133.5297,-329.6613 133.2008,-322.669"/>
<text text-anchor="middle" x="225.8474" y="-325.6351" font-family="Times,serif" font-size="14.00" fill="#1a936f"> &#160;1, 1, R &#160;</text>
</g>
<!-- q18&#45;&gt;q18 -->
<g id="edge83" class="edge">
<title>q18&#45;&gt;q18</title>
<path fill="none" stroke="#555555" d="M123.4124,-332.652C168.8892,-336.2766 252.3474,-335.171 252.3474,-329.3351 252.3474,-323.9095 180.2129,-322.5724 133.5263,-325.3237"/>
<polygon fill="#555555" stroke="#555555" points="133.1491,-321.8413 123.4124,-326.0182 133.6287,-328.8249 133.1491,-321.8413"/>
<text text-anchor="middle" x="278.8474" y="-325.6351" font-family="Times,serif" font-size="14.00" fill="#555555"> &#160;0, 0, R &#160;</text>
</g>
<!-- q18&#45;&gt;q18 -->
<g id="edge84" class="edge">
<title>q18&#45;&gt;q18</title>
<path fill="none" stroke="#26547c" d="M123.1016,-333.0932C180.8774,-338.7065 305.3474,-337.4538 305.3474,-329.3351 305.3474,-321.6603 194.1191,-320.1212 133.1476,-324.7176"/>
<polygon fill="#26547c" stroke="#26547c" points="132.7669,-321.2373 123.1016,-325.577 133.3636,-328.2119 132.7669,-321.2373"/>
<text text-anchor="middle" x="333.3474" y="-325.6351" font-family="Times,serif" font-size="14.00" fill="#26547c"> &#160;Z, Z, R &#160;</text>
</g>
<!-- q18&#45;&gt;q18 -->
<g id="edge85" class="edge">
<title>q18&#45;&gt;q18</title>
<path fill="none" stroke="#ef476f" d="M123.3294,-333.4813C192.8723,-341.1234 361.3474,-339.7413 361.3474,-329.3351 361.3474,-319.4166 208.2966,-317.6961 133.7335,-324.1736"/>
<polygon fill="#ef476f" stroke="#ef476f" points="132.9422,-320.7341 123.3294,-325.1888 133.6221,-327.701 132.9422,-320.7341"/>
<text text-anchor="middle" x="390.8474" y="-325.6351" font-family="Times,serif" font-size="14.00" fill="#ef476f"> &#160;U, U, R &#160;</text>
</g>
<!-- q19 -->
<g id="node23" class="node">
<title>q19</title>
<ellipse fill="none" stroke="#555555" cx="99.2996" cy="-230.2393" rx="24.0958" ry="24.0958"/>
<text text-anchor="middle" x="99.2996" y="-226.5393" font-family="Times,serif" font-size="14.00" fill="#555555">q19</text>
</g>
<!-- q18&#45;&gt;q19 -->
<g id="edge86" class="edge">
<title>q18&#45;&gt;q19</title>
<path fill="none" stroke="#ffb20f" d="M99.2996,-305.0935C99.2996,-292.9765 99.2996,-278.0995 99.2996,-264.8093"/>
<polygon fill="#ffb20f" stroke="#ffb20f" points="102.7997,-264.574 99.2996,-254.5741 95.7997,-264.5741 102.7997,-264.574"/>
<text text-anchor="middle" x="126.7996" y="-276.0872" font-family="Times,serif" font-size="14.00" fill="#ffb20f"> &#160;B, 1, L &#160;</text>
</g>
<!-- q20&#45;&gt;q20 -->
<g id="edge90" class="edge">
<title>q20&#45;&gt;q20</title>
<path fill="none" stroke="#ef476f" d="M558.4968,-331.1241C568.2017,-331.2252 576.3474,-330.6288 576.3474,-329.3351 576.3474,-328.5467 573.3226,-328.0173 568.7634,-327.7469"/>
<polygon fill="#ef476f" stroke="#ef476f" points="568.5633,-324.2424 558.4968,-327.546 568.4264,-331.241 568.5633,-324.2424"/>
<text text-anchor="middle" x="605.3474" y="-325.6351" font-family="Times,serif" font-size="14.00" fill="#ef476f"> &#160;C, C, R &#160;</text>
</g>
<!-- q20&#45;&gt;q20 -->
<g id="edge91" class="edge">
<title>q20&#45;&gt;q20</title>
<path fill="none" stroke="#ffb20f" d="M558.3763,-332.0351C589.3295,-333.8351 634.3474,-332.9351 634.3474,-329.3351 634.3474,-326.1148 598.3247,-325.0549 568.5701,-326.1556"/>
<polygon fill="#ffb20f" stroke="#ffb20f" points="568.2008,-322.669 558.3763,-326.6351 568.5297,-329.6613 568.2008,-322.669"/>
<text text-anchor="middle" x="660.8474" y="-325.6351" font-family="Times,serif" font-size="14.00" fill="#ffb20f"> &#160;1, 1, R &#160;</text>
</g>
<!-- q20&#45;&gt;q20 -->
<g id="edge92" class="edge">
<title>q20&#45;&gt;q20</title>
<path fill="none" stroke="#1a936f" d="M558.4124,-332.652C603.8892,-336.2766 687.3474,-335.171 687.3474,-329.3351 687.3474,-323.9095 615.2129,-322.5724 568.5263,-325.3237"/>
<polygon fill="#1a936f" stroke="#1a936f" points="568.1491,-321.8413 558.4124,-326.0182 568.6287,-328.8249 568.1491,-321.8413"/>
<text text-anchor="middle" x="713.8474" y="-325.6351" font-family="Times,serif" font-size="14.00" fill="#1a936f"> &#160;0, 0, R &#160;</text>
</g>
<!-- q20&#45;&gt;q20 -->
<g id="edge93" class="edge">
<title>q20&#45;&gt;q20</title>
<path fill="none" stroke="#555555" d="M558.1016,-333.0932C615.8774,-338.7065 740.3474,-337.4538 740.3474,-329.3351 740.3474,-321.6603 629.1191,-320.1212 568.1476,-324.7176"/>
<polygon fill="#555555" stroke="#555555" points="567.7669,-321.2373 558.1016,-325.577 568.3636,-328.2119 567.7669,-321.2373"/>
<text text-anchor="middle" x="768.3474" y="-325.6351" font-family="Times,serif" font-size="14.00" fill="#555555"> &#160;Z, Z, R &#160;</text>
</g>
<!-- q20&#45;&gt;q20 -->
<g id="edge94" class="edge">
<title>q20&#45;&gt;q20</title>
<path fill="none" stroke="#26547c" d="M558.3294,-333.4813C627.8723,-341.1234 796.3474,-339.7413 796.3474,-329.3351 796.3474,-319.4166 643.2966,-317.6961 568.7335,-324.1736"/>
<polygon fill="#26547c" stroke="#26547c" points="567.9422,-320.7341 558.3294,-325.1888 568.6221,-327.701 567.9422,-320.7341"/>
<text text-anchor="middle" x="825.8474" y="-325.6351" font-family="Times,serif" font-size="14.00" fill="#26547c"> &#160;U, U, R &#160;</text>
</g>
<!-- q20&#45;&gt;q19 -->
<g id="edge95" class="edge">
<title>q20&#45;&gt;q19</title>
<path fill="none" stroke="#ef476f" d="M515.6355,-313.5514C511.165,-310.4069 506.2468,-307.4207 501.2996,-305.2872 373.2484,-250.0651 205.044,-235.4027 133.6827,-231.5688"/>
<polygon fill="#ef476f" stroke="#ef476f" points="133.6389,-228.0624 123.477,-231.06 133.2902,-235.0537 133.6389,-228.0624"/>
<text text-anchor="middle" x="477.7996" y="-276.0872" font-family="Times,serif" font-size="14.00" fill="#ef476f"> &#160;B, 0, L &#160;</text>
</g>
<!-- q21&#45;&gt;q21 -->
<g id="edge96" class="edge">
<title>q21&#45;&gt;q21</title>
<path fill="none" stroke="#ffb20f" d="M993.4968,-331.1241C1003.2017,-331.2252 1011.3474,-330.6288 1011.3474,-329.3351 1011.3474,-328.5467 1008.3226,-328.0173 1003.7634,-327.7469"/>
<polygon fill="#ffb20f" stroke="#ffb20f" points="1003.5633,-324.2424 993.4968,-327.546 1003.4264,-331.241 1003.5633,-324.2424"/>
<text text-anchor="middle" x="1040.3474" y="-325.6351" font-family="Times,serif" font-size="14.00" fill="#ffb20f"> &#160;C, C, R &#160;</text>
</g>
<!-- q21&#45;&gt;q21 -->
<g id="edge97" class="edge">
<title>q21&#45;&gt;q21</title>
<path fill="none" stroke="#1a936f" d="M993.3763,-332.0351C1024.3295,-333.8351 1069.3474,-332.9351 1069.3474,-329.3351 1069.3474,-326.1148 1033.3247,-325.0549 1003.5701,-326.1556"/>
<polygon fill="#1a936f" stroke="#1a936f" points="1003.2008,-322.669 993.3763,-326.6351 1003.5297,-329.6613 1003.2008,-322.669"/>
<text text-anchor="middle" x="1095.8474" y="-325.6351" font-family="Times,serif" font-size="14.00" fill="#1a936f"> &#160;1, 1, R &#160;</text>
</g>
<!-- q21&#45;&gt;q21 -->
<g id="edge98" class="edge">
<title>q21&#45;&gt;q21</title>
<path fill="none" stroke="#555555" d="M993.4124,-332.652C1038.8892,-336.2766 1122.3474,-335.171 1122.3474,-329.3351 1122.3474,-323.9095 1050.2129,-322.5724 1003.5263,-325.3237"/>
<polygon fill="#555555" stroke="#555555" points="1003.1491,-321.8413 993.4124,-326.0182 1003.6287,-328.8249 1003.1491,-321.8413"/>
<text text-anchor="middle" x="1148.8474" y="-325.6351" font-family="Times,serif" font-size="14.00" fill="#555555"> &#160;0, 0, R &#160;</text>
</g>
<!-- q21&#45;&gt;q21 -->
<g id="edge99" class="edge">
<title>q21&#45;&gt;q21</title>
<path fill="none" stroke="#26547c" d="M993.1016,-333.0932C1050.8774,-338.7065 1175.3474,-337.4538 1175.3474,-329.3351 1175.3474,-321.6603 1064.1191,-320.1212 1003.1476,-324.7176"/>
<polygon fill="#26547c" stroke="#26547c" points="1002.7669,-321.2373 993.1016,-325.577 1003.3636,-328.2119 1002.7669,-321.2373"/>
<text text-anchor="middle" x="1203.3474" y="-325.6351" font-family="Times,serif" font-size="14.00" fill="#26547c"> &#160;Z, Z, R &#160;</text>
</g>
<!-- q21&#45;&gt;q21 -->
<g id="edge100" class="edge">
<title>q21&#45;&gt;q21</title>
<path fill="none" stroke="#ef476f" d="M993.3294,-333.4813C1062.8723,-341.1234 1231.3474,-339.7413 1231.3474,-329.3351 1231.3474,-319.4166 1078.2966,-317.6961 1003.7335,-324.1736"/>
<polygon fill="#ef476f" stroke="#ef476f" points="1002.9422,-320.7341 993.3294,-325.1888 1003.6221,-327.701 1002.9422,-320.7341"/>
<text text-anchor="middle" x="1260.8474" y="-325.6351" font-family="Times,serif" font-size="14.00" fill="#ef476f"> &#160;U, U, R &#160;</text>
</g>
<!-- q22 -->
<g id="node24" class="node">
<title>q22</title>
<ellipse fill="none" stroke="#555555" cx="969.2996" cy="-230.2393" rx="24.0958" ry="24.0958"/>
<text text-anchor="middle" x="969.2996" y="-226.5393" font-family="Times,serif" font-size="14.00" fill="#555555">q22</text>
</g>
<!-- q21&#45;&gt;q22 -->
<g id="edge101" class="edge">
<title>q21&#45;&gt;q22</title>
<path fill="none" stroke="#ffb20f" d="M969.2996,-305.0935C969.2996,-292.9765 969.2996,-278.0995 969.2996,-264.8093"/>
<polygon fill="#ffb20f" stroke="#ffb20f" points="972.7997,-264.574 969.2996,-254.5741 965.7997,-264.5741 972.7997,-264.574"/>
<text text-anchor="middle" x="997.7996" y="-276.0872" font-family="Times,serif" font-size="14.00" fill="#ffb20f"> &#160;B, B, L &#160;</text>
</g>
<!-- q19&#45;&gt;q17 -->
<g id="edge89" class="edge">
<title>q19&#45;&gt;q17</title>
<path fill="none" stroke="#26547c" d="M78.4307,-242.6344C42.5714,-265.4306 -23.8371,-315.1726 9.2996,-353.3829 41.6595,-390.6976 388.6219,-418.1848 500.0547,-426.103"/>
<polygon fill="#26547c" stroke="#26547c" points="499.864,-429.5981 510.0847,-426.8078 500.3547,-422.6153 499.864,-429.5981"/>
<text text-anchor="middle" x="37.7996" y="-325.6351" font-family="Times,serif" font-size="14.00" fill="#26547c"> &#160;C, C, L &#160;</text>
</g>
<!-- q19&#45;&gt;q19 -->
<g id="edge87" class="edge">
<title>q19&#45;&gt;q19</title>
<path fill="none" stroke="#1a936f" d="M123.0739,-234.6998C132.9639,-235.0074 141.3474,-233.5206 141.3474,-230.2393 141.3474,-228.1885 138.0726,-226.8387 133.2019,-226.1898"/>
<polygon fill="#1a936f" stroke="#1a936f" points="133.2076,-222.6873 123.0739,-225.7789 132.9237,-229.6815 133.2076,-222.6873"/>
<text text-anchor="middle" x="167.3474" y="-226.5393" font-family="Times,serif" font-size="14.00" fill="#1a936f"> &#160;0, 0, L &#160;</text>
</g>
<!-- q19&#45;&gt;q19 -->
<g id="edge88" class="edge">
<title>q19&#45;&gt;q19</title>
<path fill="none" stroke="#555555" d="M122.4388,-236.9893C151.7045,-241.4893 193.3474,-239.2393 193.3474,-230.2393 193.3474,-222.2237 160.3157,-219.5623 132.4151,-222.255"/>
<polygon fill="#555555" stroke="#555555" points="131.9333,-218.7878 122.4388,-223.4893 132.7929,-225.7349 131.9333,-218.7878"/>
<text text-anchor="middle" x="219.3474" y="-226.5393" font-family="Times,serif" font-size="14.00" fill="#555555"> &#160;1, 1, L &#160;</text>
</g>
<!-- q23 -->
<g id="node25" class="node">
<title>q23</title>
<ellipse fill="none" stroke="#555555" cx="1390.2996" cy="-131.1436" rx="24.0958" ry="24.0958"/>
<text text-anchor="middle" x="1390.2996" y="-127.4436" font-family="Times,serif" font-size="14.00" fill="#555555">q23</text>
</g>
<!-- q22&#45;&gt;q23 -->
<g id="edge102" class="edge">
<title>q22&#45;&gt;q23</title>
<path fill="none" stroke="#1a936f" d="M991.2273,-219.4364C1019.5737,-206.0272 1070.8229,-183.6521 1117.2996,-173.1915 1221.6552,-149.7038 1256.9031,-192.1012 1357.2996,-155.1915 1359.4079,-154.4163 1361.4999,-153.4647 1363.5474,-152.392"/>
<polygon fill="#1a936f" stroke="#1a936f" points="1365.4756,-155.315 1372.1505,-147.0872 1361.8016,-149.3566 1365.4756,-155.315"/>
<text text-anchor="middle" x="1144.7996" y="-176.9915" font-family="Times,serif" font-size="14.00" fill="#1a936f"> &#160;0, B, L &#160;</text>
</g>
<!-- q24 -->
<g id="node26" class="node">
<title>q24</title>
<ellipse fill="none" stroke="#555555" cx="688.2996" cy="-131.1436" rx="24.0958" ry="24.0958"/>
<text text-anchor="middle" x="688.2996" y="-127.4436" font-family="Times,serif" font-size="14.00" fill="#555555">q24</text>
</g>
<!-- q22&#45;&gt;q24 -->
<g id="edge103" class="edge">
<title>q22&#45;&gt;q24</title>
<path fill="none" stroke="#555555" d="M948.3059,-218.3868C925.318,-205.7962 887.0844,-185.9807 852.2996,-173.1915 808.487,-157.083 755.9186,-144.7787 722.3191,-137.7579"/>
<polygon fill="#555555" stroke="#555555" points="722.6109,-134.245 712.1118,-135.6659 721.2054,-141.1025 722.6109,-134.245"/>
<text text-anchor="middle" x="912.7996" y="-176.9915" font-family="Times,serif" font-size="14.00" fill="#555555"> &#160;1, B, L &#160;</text>
</g>
<!-- q25 -->
<g id="node27" class="node">
<title>q25</title>
<ellipse fill="none" stroke="#555555" cx="969.2996" cy="-131.1436" rx="24.0958" ry="24.0958"/>
<text text-anchor="middle" x="969.2996" y="-127.4436" font-family="Times,serif" font-size="14.00" fill="#555555">q25</text>
</g>
<!-- q22&#45;&gt;q25 -->
<g id="edge104" class="edge">
<title>q22&#45;&gt;q25</title>
<path fill="none" stroke="#26547c" d="M969.2996,-205.9978C969.2996,-193.8808 969.2996,-179.0037 969.2996,-165.7135"/>
<polygon fill="#26547c" stroke="#26547c" points="972.7997,-165.4783 969.2996,-155.4783 965.7997,-165.4784 972.7997,-165.4783"/>
<text text-anchor="middle" x="997.7996" y="-176.9915" font-family="Times,serif" font-size="14.00" fill="#26547c"> &#160;C, B, L &#160;</text>
</g>
<!-- q23&#45;&gt;q21 -->
<g id="edge108" class="edge">
<title>q23&#45;&gt;q21</title>
<path fill="none" stroke="#555555" d="M1374.4962,-149.7297C1344.4635,-183.6264 1275.4026,-254.9659 1200.2996,-287.2872 1134.4727,-315.6164 1050.1152,-324.8663 1003.7234,-327.8815"/>
<polygon fill="#555555" stroke="#555555" points="1003.3766,-324.3958 993.6001,-328.4787 1003.7889,-331.3836 1003.3766,-324.3958"/>
<text text-anchor="middle" x="1346.2996" y="-226.5393" font-family="Times,serif" font-size="14.00" fill="#555555"> &#160;U, 0, R &#160;</text>
</g>
<!-- q23&#45;&gt;q21 -->
<g id="edge109" class="edge">
<title>q23&#45;&gt;q21</title>
<path fill="none" stroke="#26547c" d="M1371.4084,-146.4455C1366.9497,-149.6151 1362.0937,-152.7332 1357.2996,-155.1915 1292.7667,-188.2818 1269.0392,-177.8141 1202.2996,-206.1915 1126.4326,-238.4497 1041.9356,-286.3031 998.541,-311.8181"/>
<polygon fill="#26547c" stroke="#26547c" points="996.752,-308.8098 989.9228,-316.91 1000.3128,-314.8365 996.752,-308.8098"/>
<text text-anchor="middle" x="1229.7996" y="-226.5393" font-family="Times,serif" font-size="14.00" fill="#26547c"> &#160;Z, 0, R &#160;</text>
</g>
<!-- q23&#45;&gt;q23 -->
<g id="edge105" class="edge">
<title>q23&#45;&gt;q23</title>
<path fill="none" stroke="#ef476f" d="M1414.4968,-134.1253C1424.2017,-134.2937 1432.3474,-133.2998 1432.3474,-131.1436 1432.3474,-129.8296 1429.3226,-128.9473 1424.7634,-128.4966"/>
<polygon fill="#ef476f" stroke="#ef476f" points="1424.6055,-124.9897 1414.4968,-128.1619 1424.3774,-131.986 1424.6055,-124.9897"/>
<text text-anchor="middle" x="1458.3474" y="-127.4436" font-family="Times,serif" font-size="14.00" fill="#ef476f"> &#160;0, 0, L &#160;</text>
</g>
<!-- q23&#45;&gt;q23 -->
<g id="edge106" class="edge">
<title>q23&#45;&gt;q23</title>
<path fill="none" stroke="#ffb20f" d="M1414.3573,-135.7359C1443.5675,-138.6119 1484.3474,-137.0811 1484.3474,-131.1436 1484.3474,-125.8787 1452.2834,-124.0787 1424.6535,-125.7436"/>
<polygon fill="#ffb20f" stroke="#ffb20f" points="1424.0529,-122.2799 1414.3573,-126.5513 1424.6004,-129.2584 1424.0529,-122.2799"/>
<text text-anchor="middle" x="1510.3474" y="-127.4436" font-family="Times,serif" font-size="14.00" fill="#ffb20f"> &#160;1, 1, L &#160;</text>
</g>
<!-- q23&#45;&gt;q23 -->
<g id="edge107" class="edge">
<title>q23&#45;&gt;q23</title>
<path fill="none" stroke="#1a936f" d="M1413.7539,-136.6718C1457.4881,-142.7129 1536.3474,-140.8702 1536.3474,-131.1436 1536.3474,-122.1199 1468.4739,-119.8818 1423.7426,-124.4292"/>
<polygon fill="#1a936f" stroke="#1a936f" points="1423.2713,-120.9605 1413.7539,-125.6154 1424.0968,-127.9117 1423.2713,-120.9605"/>
<text text-anchor="middle" x="1564.8474" y="-127.4436" font-family="Times,serif" font-size="14.00" fill="#1a936f"> &#160;C, C, L &#160;</text>
</g>
<!-- q24&#45;&gt;q21 -->
<g id="edge113" class="edge">
<title>q24&#45;&gt;q21</title>
<path fill="none" stroke="#555555" d="M708.314,-145.0205C750.5852,-174.3679 852.006,-244.9857 936.2996,-305.2872 937.9427,-306.4627 939.6291,-307.6745 941.3286,-308.9"/>
<polygon fill="#555555" stroke="#555555" points="939.6457,-312.0028 949.7969,-315.0363 943.753,-306.3345 939.6457,-312.0028"/>
<text text-anchor="middle" x="888.2996" y="-226.5393" font-family="Times,serif" font-size="14.00" fill="#555555"> &#160;U, 1, R &#160;</text>
</g>
<!-- q24&#45;&gt;q21 -->
<g id="edge114" class="edge">
<title>q24&#45;&gt;q21</title>
<path fill="none" stroke="#26547c" d="M691.7418,-155.2528C697.0156,-183.1791 709.7892,-228.6264 739.2996,-254.2872 807.548,-313.6328 854.5312,-266.639 936.2996,-305.2872 938.1262,-306.1506 939.9551,-307.1197 941.7631,-308.1604"/>
<polygon fill="#26547c" stroke="#26547c" points="940.22,-311.3297 950.5224,-313.8018 944.0102,-305.4446 940.22,-311.3297"/>
<text text-anchor="middle" x="766.7996" y="-226.5393" font-family="Times,serif" font-size="14.00" fill="#26547c"> &#160;Z, 1, R &#160;</text>
</g>
<!-- q24&#45;&gt;q24 -->
<g id="edge110" class="edge">
<title>q24&#45;&gt;q24</title>
<path fill="none" stroke="#ef476f" d="M712.4968,-134.1253C722.2017,-134.2937 730.3474,-133.2998 730.3474,-131.1436 730.3474,-129.8296 727.3226,-128.9473 722.7634,-128.4966"/>
<polygon fill="#ef476f" stroke="#ef476f" points="722.6055,-124.9897 712.4968,-128.1619 722.3774,-131.986 722.6055,-124.9897"/>
<text text-anchor="middle" x="756.3474" y="-127.4436" font-family="Times,serif" font-size="14.00" fill="#ef476f"> &#160;0, 0, L &#160;</text>
</g>
<!-- q24&#45;&gt;q24 -->
<g id="edge111" class="edge">
<title>q24&#45;&gt;q24</title>
<path fill="none" stroke="#ffb20f" d="M712.3573,-135.7359C741.5675,-138.6119 782.3474,-137.0811 782.3474,-131.1436 782.3474,-125.8787 750.2834,-124.0787 722.6535,-125.7436"/>
<polygon fill="#ffb20f" stroke="#ffb20f" points="722.0529,-122.2799 712.3573,-126.5513 722.6004,-129.2584 722.0529,-122.2799"/>
<text text-anchor="middle" x="808.3474" y="-127.4436" font-family="Times,serif" font-size="14.00" fill="#ffb20f"> &#160;1, 1, L &#160;</text>
</g>
<!-- q24&#45;&gt;q24 -->
<g id="edge112" class="edge">
<title>q24&#45;&gt;q24</title>
<path fill="none" stroke="#1a936f" d="M711.7539,-136.6718C755.4881,-142.7129 834.3474,-140.8702 834.3474,-131.1436 834.3474,-122.1199 766.4739,-119.8818 721.7426,-124.4292"/>
<polygon fill="#1a936f" stroke="#1a936f" points="721.2713,-120.9605 711.7539,-125.6154 722.0968,-127.9117 721.2713,-120.9605"/>
<text text-anchor="middle" x="862.8474" y="-127.4436" font-family="Times,serif" font-size="14.00" fill="#1a936f"> &#160;C, C, L &#160;</text>
</g>
<!-- q25&#45;&gt;q26 -->
<g id="edge120" class="edge">
<title>q25&#45;&gt;q26</title>
<path fill="none" stroke="#ef476f" d="M969.2996,-106.9722C969.2996,-94.9259 969.2996,-80.0696 969.2996,-66.5076"/>
<polygon fill="#ef476f" stroke="#ef476f" points="972.7997,-66.4569 969.2996,-56.4569 965.7997,-66.457 972.7997,-66.4569"/>
<text text-anchor="middle" x="995.7996" y="-77.8957" font-family="Times,serif" font-size="14.00" fill="#ef476f"> &#160;$, $, R &#160;</text>
</g>
<!-- q25&#45;&gt;q25 -->
<g id="edge115" class="edge">
<title>q25&#45;&gt;q25</title>
<path fill="none" stroke="#ef476f" d="M993.4968,-132.9326C1003.2017,-133.0337 1011.3474,-132.4373 1011.3474,-131.1436 1011.3474,-130.3552 1008.3226,-129.8258 1003.7634,-129.5554"/>
<polygon fill="#ef476f" stroke="#ef476f" points="1003.5633,-126.0509 993.4968,-129.3546 1003.4264,-133.0496 1003.5633,-126.0509"/>
<text text-anchor="middle" x="1037.3474" y="-127.4436" font-family="Times,serif" font-size="14.00" fill="#ef476f"> &#160;#, #, L &#160;</text>
</g>
<!-- q25&#45;&gt;q25 -->
<g id="edge116" class="edge">
<title>q25&#45;&gt;q25</title>
<path fill="none" stroke="#ffb20f" d="M993.3573,-133.899C1022.5675,-135.6246 1063.3474,-134.7061 1063.3474,-131.1436 1063.3474,-127.9847 1031.2834,-126.9047 1003.6535,-127.9036"/>
<polygon fill="#ffb20f" stroke="#ffb20f" points="1003.1816,-124.4218 993.3573,-128.3882 1003.5108,-131.4141 1003.1816,-124.4218"/>
<text text-anchor="middle" x="1089.3474" y="-127.4436" font-family="Times,serif" font-size="14.00" fill="#ffb20f"> &#160;1, 1, L &#160;</text>
</g>
<!-- q25&#45;&gt;q25 -->
<g id="edge117" class="edge">
<title>q25&#45;&gt;q25</title>
<path fill="none" stroke="#1a936f" d="M993.3886,-134.5126C1037.2464,-138.0744 1115.3474,-136.9514 1115.3474,-131.1436 1115.3474,-125.7555 1048.1265,-124.3996 1003.3909,-127.0758"/>
<polygon fill="#1a936f" stroke="#1a936f" points="1003.1203,-123.5861 993.3886,-127.7746 1003.6082,-130.5691 1003.1203,-123.5861"/>
<text text-anchor="middle" x="1141.3474" y="-127.4436" font-family="Times,serif" font-size="14.00" fill="#1a936f"> &#160;0, 0, L &#160;</text>
</g>
<!-- q25&#45;&gt;q25 -->
<g id="edge118" class="edge">
<title>q25&#45;&gt;q25</title>
<path fill="none" stroke="#555555" d="M993.3691,-134.979C1049.6936,-140.5033 1167.3474,-139.2248 1167.3474,-131.1436 1167.3474,-123.5201 1062.6441,-121.9505 1003.4976,-126.4349"/>
<polygon fill="#555555" stroke="#555555" points="1003.0315,-122.962 993.3691,-127.3082 1003.6328,-129.9362 1003.0315,-122.962"/>
<text text-anchor="middle" x="1194.8474" y="-127.4436" font-family="Times,serif" font-size="14.00" fill="#555555"> &#160;U, 1, L &#160;</text>
</g>
<!-- q25&#45;&gt;q25 -->
<g id="edge119" class="edge">
<title>q25&#45;&gt;q25</title>
<path fill="none" stroke="#26547c" d="M993.3545,-135.3413C1061.368,-142.9257 1222.3474,-141.5264 1222.3474,-131.1436 1222.3474,-121.2475 1076.1061,-119.5125 1003.5055,-125.9385"/>
<polygon fill="#26547c" stroke="#26547c" points="1002.96,-122.4754 993.3545,-126.9459 1003.6513,-129.4412 1002.96,-122.4754"/>
<text text-anchor="middle" x="1249.3474" y="-127.4436" font-family="Times,serif" font-size="14.00" fill="#26547c"> &#160;Z, 0, L &#160;</text>
</g>
</g>
</svg>
