<?xml version="1.0" encoding="UTF-8" standalone="no"?>
<!DOCTYPE svg PUBLIC "-//W3C//DTD SVG 1.1//EN"
 "http://www.w3.org/Graphics/SVG/1.1/DTD/svg11.dtd">
<!-- Generated by graphviz version 2.40.1 (20161225.0304)
 -->
<!-- Title: turing_machine Pages: 1 -->
<svg width="1039pt" height="810pt"
 viewBox="0.00 0.00 1038.55 810.27" xmlns="http://www.w3.org/2000/svg" xmlns:xlink="http://www.w3.org/1999/xlink">
<g id="graph0" class="graph" transform="scale(1 1) rotate(0) translate(4 806.2664)">
<title>turing_machine</title>
<polygon fill="#ffffff" stroke="transparent" points="-4,4 -4,-806.2664 1034.5461,-806.2664 1034.5461,4 -4,4"/>
<!-- q0 -->
<g id="node1" class="node">
<title>q0</title>
<ellipse fill="#cccccc" stroke="#cccccc" cx="100.4983" cy="-778.7682" rx="19.4968" ry="19.4968"/>
<ellipse fill="none" stroke="#cccccc" cx="100.4983" cy="-778.7682" rx="23.4965" ry="23.4965"/>
<text text-anchor="middle" x="100.4983" y="-775.0682" font-family="Times,serif" font-size="14.00" fill="#000000">q0</text>
</g>
<!-- q1 -->
<g id="node3" class="node">
<title>q1</title>
<ellipse fill="none" stroke="#555555" cx="100.4983" cy="-684.7716" rx="19.4965" ry="19.4965"/>
<text text-anchor="middle" x="100.4983" y="-681.0716" font-family="Times,serif" font-size="14.00" fill="#555555">q1</text>
</g>
<!-- q0&#45;&gt;q1 -->
<g id="edge1" class="edge">
<title>q0&#45;&gt;q1</title>
<path fill="none" stroke="#1a936f" d="M100.4983,-755.0489C100.4983,-742.812 100.4983,-727.7583 100.4983,-714.7267"/>
<polygon fill="#1a936f" stroke="#1a936f" points="103.9984,-714.3619 100.4983,-704.362 96.9984,-714.362 103.9984,-714.3619"/>
<text text-anchor="middle" x="126.9983" y="-726.0699" font-family="Times,serif" font-size="14.00" fill="#1a936f"> &#160;$, $, R &#160;</text>
</g>
<!-- q14 -->
<g id="node2" class="node">
<title>q14</title>
<ellipse fill="none" stroke="#555555" cx="649.4983" cy="-28.0479" rx="24.089" ry="24.089"/>
<ellipse fill="none" stroke="#555555" cx="649.4983" cy="-28.0479" rx="28.0958" ry="28.0958"/>
<text text-anchor="middle" x="649.4983" y="-24.3479" font-family="Times,serif" font-size="14.00" fill="#555555">q14</text>
</g>
<!-- q1&#45;&gt;q1 -->
<g id="edge2" class="edge">
<title>q1&#45;&gt;q1</title>
<path fill="none" stroke="#555555" d="M119.7919,-688.7748C129.4139,-689.3287 137.9965,-687.9943 137.9965,-684.7716 137.9965,-682.8078 134.8095,-681.5452 130.1423,-680.9838"/>
<polygon fill="#555555" stroke="#555555" points="129.8625,-677.4773 119.7919,-680.7685 129.7169,-684.4758 129.8625,-677.4773"/>
<text text-anchor="middle" x="164.4965" y="-681.0716" font-family="Times,serif" font-size="14.00" fill="#555555"> &#160;1, 1, R &#160;</text>
</g>
<!-- q1&#45;&gt;q1 -->
<g id="edge3" class="edge">
<title>q1&#45;&gt;q1</title>
<path fill="none" stroke="#26547c" d="M119.4268,-690.4833C147.4903,-695.2263 190.9965,-693.3224 190.9965,-684.7716 190.9965,-677.1895 156.7889,-674.8336 129.4728,-677.704"/>
<polygon fill="#26547c" stroke="#26547c" points="128.8688,-674.2537 119.4268,-679.06 129.8052,-681.1908 128.8688,-674.2537"/>
<text text-anchor="middle" x="217.4965" y="-681.0716" font-family="Times,serif" font-size="14.00" fill="#26547c"> &#160;#, #, R &#160;</text>
</g>
<!-- q2 -->
<g id="node4" class="node">
<title>q2</title>
<ellipse fill="none" stroke="#555555" cx="100.4983" cy="-594.7751" rx="19.4965" ry="19.4965"/>
<text text-anchor="middle" x="100.4983" y="-591.0751" font-family="Times,serif" font-size="14.00" fill="#555555">q2</text>
</g>
<!-- q1&#45;&gt;q2 -->
<g id="edge4" class="edge">
<title>q1&#45;&gt;q2</title>
<path fill="none" stroke="#ef476f" d="M100.4983,-665.2437C100.4983,-653.4141 100.4983,-638.0826 100.4983,-624.7424"/>
<polygon fill="#ef476f" stroke="#ef476f" points="103.9984,-624.5756 100.4983,-614.5757 96.9984,-624.5757 103.9984,-624.5756"/>
<text text-anchor="middle" x="127.9983" y="-636.0734" font-family="Times,serif" font-size="14.00" fill="#ef476f"> &#160;B, #, R &#160;</text>
</g>
<!-- q3 -->
<g id="node5" class="node">
<title>q3</title>
<ellipse fill="none" stroke="#555555" cx="100.4983" cy="-504.7785" rx="19.4965" ry="19.4965"/>
<text text-anchor="middle" x="100.4983" y="-501.0785" font-family="Times,serif" font-size="14.00" fill="#555555">q3</text>
</g>
<!-- q2&#45;&gt;q3 -->
<g id="edge5" class="edge">
<title>q2&#45;&gt;q3</title>
<path fill="none" stroke="#ffb20f" d="M100.4983,-575.2472C100.4983,-563.4175 100.4983,-548.0861 100.4983,-534.7459"/>
<polygon fill="#ffb20f" stroke="#ffb20f" points="103.9984,-534.5791 100.4983,-524.5791 96.9984,-534.5792 103.9984,-534.5791"/>
<text text-anchor="middle" x="127.9983" y="-546.0768" font-family="Times,serif" font-size="14.00" fill="#ffb20f"> &#160;B, P, L &#160;</text>
</g>
<!-- q3&#45;&gt;q3 -->
<g id="edge6" class="edge">
<title>q3&#45;&gt;q3</title>
<path fill="none" stroke="#1a936f" d="M119.7919,-508.7817C129.4139,-509.3356 137.9965,-508.0012 137.9965,-504.7785 137.9965,-502.8147 134.8095,-501.5521 130.1423,-500.9907"/>
<polygon fill="#1a936f" stroke="#1a936f" points="129.8625,-497.4842 119.7919,-500.7754 129.7169,-504.4827 129.8625,-497.4842"/>
<text text-anchor="middle" x="163.9965" y="-501.0785" font-family="Times,serif" font-size="14.00" fill="#1a936f"> &#160;1, 1, L &#160;</text>
</g>
<!-- q3&#45;&gt;q3 -->
<g id="edge7" class="edge">
<title>q3&#45;&gt;q3</title>
<path fill="none" stroke="#555555" d="M119.3002,-510.4902C147.0945,-515.2332 189.9965,-513.3293 189.9965,-504.7785 189.9965,-497.1964 156.264,-494.8405 129.2432,-497.7109"/>
<polygon fill="#555555" stroke="#555555" points="128.7355,-494.2477 119.3002,-499.0669 129.6814,-501.1835 128.7355,-494.2477"/>
<text text-anchor="middle" x="215.9965" y="-501.0785" font-family="Times,serif" font-size="14.00" fill="#555555"> &#160;#, #, L &#160;</text>
</g>
<!-- q4 -->
<g id="node6" class="node">
<title>q4</title>
<ellipse fill="none" stroke="#555555" cx="100.4983" cy="-414.782" rx="19.4965" ry="19.4965"/>
<text text-anchor="middle" x="100.4983" y="-411.082" font-family="Times,serif" font-size="14.00" fill="#555555">q4</text>
</g>
<!-- q3&#45;&gt;q4 -->
<g id="edge8" class="edge">
<title>q3&#45;&gt;q4</title>
<path fill="none" stroke="#26547c" d="M100.4983,-485.2506C100.4983,-473.421 100.4983,-458.0895 100.4983,-444.7493"/>
<polygon fill="#26547c" stroke="#26547c" points="103.9984,-444.5826 100.4983,-434.5826 96.9984,-444.5826 103.9984,-444.5826"/>
<text text-anchor="middle" x="126.9983" y="-456.0803" font-family="Times,serif" font-size="14.00" fill="#26547c"> &#160;$, $, R &#160;</text>
</g>
<!-- q5 -->
<g id="node7" class="node">
<title>q5</title>
<ellipse fill="none" stroke="#555555" cx="100.4983" cy="-324.7855" rx="19.4965" ry="19.4965"/>
<text text-anchor="middle" x="100.4983" y="-321.0855" font-family="Times,serif" font-size="14.00" fill="#555555">q5</text>
</g>
<!-- q4&#45;&gt;q5 -->
<g id="edge9" class="edge">
<title>q4&#45;&gt;q5</title>
<path fill="none" stroke="#ef476f" d="M100.4983,-395.2541C100.4983,-383.4244 100.4983,-368.093 100.4983,-354.7528"/>
<polygon fill="#ef476f" stroke="#ef476f" points="103.9984,-354.586 100.4983,-344.586 96.9984,-354.5861 103.9984,-354.586"/>
<text text-anchor="middle" x="128.4983" y="-366.0837" font-family="Times,serif" font-size="14.00" fill="#ef476f"> &#160;1, X, R &#160;</text>
</g>
<!-- q7 -->
<g id="node8" class="node">
<title>q7</title>
<ellipse fill="none" stroke="#555555" cx="372.4983" cy="-324.7855" rx="19.4965" ry="19.4965"/>
<text text-anchor="middle" x="372.4983" y="-321.0855" font-family="Times,serif" font-size="14.00" fill="#555555">q7</text>
</g>
<!-- q4&#45;&gt;q7 -->
<g id="edge10" class="edge">
<title>q4&#45;&gt;q7</title>
<path fill="none" stroke="#ffb20f" d="M119.813,-411.2969C161.9129,-403.2522 264.5027,-381.1984 343.4983,-344.2837 345.0476,-343.5598 346.6073,-342.7588 348.1563,-341.9066"/>
<polygon fill="#ffb20f" stroke="#ffb20f" points="350.0578,-344.8465 356.7648,-336.6448 346.4071,-338.8738 350.0578,-344.8465"/>
<text text-anchor="middle" x="325.9983" y="-366.0837" font-family="Times,serif" font-size="14.00" fill="#ffb20f"> &#160;#, #, R &#160;</text>
</g>
<!-- q5&#45;&gt;q5 -->
<g id="edge11" class="edge">
<title>q5&#45;&gt;q5</title>
<path fill="none" stroke="#1a936f" d="M120.1762,-327.4683C129.6412,-327.7995 137.9965,-326.9053 137.9965,-324.7855 137.9965,-323.4937 134.8939,-322.657 130.3282,-322.2755"/>
<polygon fill="#1a936f" stroke="#1a936f" points="130.2344,-318.7734 120.1762,-322.1026 130.1151,-325.7724 130.2344,-318.7734"/>
<text text-anchor="middle" x="165.4965" y="-321.0855" font-family="Times,serif" font-size="14.00" fill="#1a936f"> &#160;P, P, R &#160;</text>
</g>
<!-- q5&#45;&gt;q5 -->
<g id="edge12" class="edge">
<title>q5&#45;&gt;q5</title>
<path fill="none" stroke="#555555" d="M119.6801,-328.5932C148.2818,-331.7552 192.9965,-330.486 192.9965,-324.7855 192.9965,-319.7307 157.8386,-318.1601 129.9321,-320.0737"/>
<polygon fill="#555555" stroke="#555555" points="129.334,-316.6128 119.6801,-320.9777 129.949,-323.5857 129.334,-316.6128"/>
<text text-anchor="middle" x="219.4965" y="-321.0855" font-family="Times,serif" font-size="14.00" fill="#555555"> &#160;1, 1, R &#160;</text>
</g>
<!-- q5&#45;&gt;q5 -->
<g id="edge13" class="edge">
<title>q5&#45;&gt;q5</title>
<path fill="none" stroke="#26547c" d="M119.6839,-329.3545C161.8382,-335.4823 245.9965,-333.9593 245.9965,-324.7855 245.9965,-316.2925 173.8669,-314.3569 129.7123,-318.9785"/>
<polygon fill="#26547c" stroke="#26547c" points="129.1797,-315.5176 119.6839,-320.2165 130.0374,-322.4649 129.1797,-315.5176"/>
<text text-anchor="middle" x="272.4965" y="-321.0855" font-family="Times,serif" font-size="14.00" fill="#26547c"> &#160;#, #, R &#160;</text>
</g>
<!-- q6 -->
<g id="node9" class="node">
<title>q6</title>
<ellipse fill="none" stroke="#555555" cx="19.4983" cy="-230.2393" rx="19.4965" ry="19.4965"/>
<text text-anchor="middle" x="19.4983" y="-226.5393" font-family="Times,serif" font-size="14.00" fill="#555555">q6</text>
</g>
<!-- q5&#45;&gt;q6 -->
<g id="edge14" class="edge">
<title>q5&#45;&gt;q6</title>
<path fill="none" stroke="#ef476f" d="M87.4842,-309.595C74.4175,-294.343 54.1233,-270.6549 39.1063,-253.1265"/>
<polygon fill="#ef476f" stroke="#ef476f" points="41.377,-250.3974 32.213,-245.0804 36.0611,-254.9517 41.377,-250.3974"/>
<text text-anchor="middle" x="94.9983" y="-276.0872" font-family="Times,serif" font-size="14.00" fill="#ef476f"> &#160;B, 1, L &#160;</text>
</g>
<!-- q8 -->
<g id="node10" class="node">
<title>q8</title>
<ellipse fill="none" stroke="#555555" cx="372.4983" cy="-230.2393" rx="19.4965" ry="19.4965"/>
<text text-anchor="middle" x="372.4983" y="-226.5393" font-family="Times,serif" font-size="14.00" fill="#555555">q8</text>
</g>
<!-- q7&#45;&gt;q8 -->
<g id="edge19" class="edge">
<title>q7&#45;&gt;q8</title>
<path fill="none" stroke="#ef476f" d="M372.4983,-305.1954C372.4983,-292.1382 372.4983,-274.7305 372.4983,-259.9774"/>
<polygon fill="#ef476f" stroke="#ef476f" points="375.9984,-259.8042 372.4983,-249.8043 368.9984,-259.8043 375.9984,-259.8042"/>
<text text-anchor="middle" x="400.4983" y="-276.0872" font-family="Times,serif" font-size="14.00" fill="#ef476f"> &#160;1, Y, R &#160;</text>
</g>
<!-- q12 -->
<g id="node11" class="node">
<title>q12</title>
<ellipse fill="none" stroke="#555555" cx="649.4983" cy="-230.2393" rx="24.0958" ry="24.0958"/>
<text text-anchor="middle" x="649.4983" y="-226.5393" font-family="Times,serif" font-size="14.00" fill="#555555">q12</text>
</g>
<!-- q7&#45;&gt;q12 -->
<g id="edge20" class="edge">
<title>q7&#45;&gt;q12</title>
<path fill="none" stroke="#ffb20f" d="M391.8799,-321.4415C434.1117,-313.6745 536.9451,-292.1343 615.4983,-254.2872 617.5622,-253.2928 619.6361,-252.1761 621.686,-250.9827"/>
<polygon fill="#ffb20f" stroke="#ffb20f" points="623.875,-253.7372 630.4126,-245.4 620.1027,-247.8406 623.875,-253.7372"/>
<text text-anchor="middle" x="596.9983" y="-276.0872" font-family="Times,serif" font-size="14.00" fill="#ffb20f"> &#160;#, #, R &#160;</text>
</g>
<!-- q6&#45;&gt;q4 -->
<g id="edge18" class="edge">
<title>q6&#45;&gt;q4</title>
<path fill="none" stroke="#26547c" d="M13.2438,-249.0749C6.5755,-272.6013 -1.178,-313.5014 13.4983,-344.2837 25.8323,-370.1535 52.812,-389.607 73.4792,-401.4551"/>
<polygon fill="#26547c" stroke="#26547c" points="72.0017,-404.6361 82.4554,-406.3593 75.3579,-398.4932 72.0017,-404.6361"/>
<text text-anchor="middle" x="42.9983" y="-321.0855" font-family="Times,serif" font-size="14.00" fill="#26547c"> &#160;X, X, R &#160;</text>
</g>
<!-- q6&#45;&gt;q6 -->
<g id="edge15" class="edge">
<title>q6&#45;&gt;q6</title>
<path fill="none" stroke="#ffb20f" d="M38.7919,-233.1507C48.4139,-233.5535 56.9965,-232.5831 56.9965,-230.2393 56.9965,-228.8111 53.8095,-227.8928 49.1423,-227.4845"/>
<polygon fill="#ffb20f" stroke="#ffb20f" points="48.8437,-223.9797 38.7919,-227.328 48.7378,-230.9789 48.8437,-223.9797"/>
<text text-anchor="middle" x="83.9965" y="-226.5393" font-family="Times,serif" font-size="14.00" fill="#ffb20f"> &#160;P, P, L &#160;</text>
</g>
<!-- q6&#45;&gt;q6 -->
<g id="edge16" class="edge">
<title>q6&#45;&gt;q6</title>
<path fill="none" stroke="#1a936f" d="M38.5535,-234.3933C66.886,-237.8427 110.9965,-236.4581 110.9965,-230.2393 110.9965,-224.725 76.3138,-223.0117 48.7025,-225.0992"/>
<polygon fill="#1a936f" stroke="#1a936f" points="48.1681,-221.6346 38.5535,-226.0854 48.8451,-228.6018 48.1681,-221.6346"/>
<text text-anchor="middle" x="136.9965" y="-226.5393" font-family="Times,serif" font-size="14.00" fill="#1a936f"> &#160;1, 1, L &#160;</text>
</g>
<!-- q6&#45;&gt;q6 -->
<g id="edge17" class="edge">
<title>q6&#45;&gt;q6</title>
<path fill="none" stroke="#555555" d="M38.5368,-235.2237C80.2293,-241.9086 162.9965,-240.2471 162.9965,-230.2393 162.9965,-220.9743 92.0591,-218.8627 48.448,-223.9045"/>
<polygon fill="#555555" stroke="#555555" points="47.9727,-220.4368 38.5368,-225.255 48.9178,-227.3727 47.9727,-220.4368"/>
<text text-anchor="middle" x="188.9965" y="-226.5393" font-family="Times,serif" font-size="14.00" fill="#555555"> &#160;#, #, L &#160;</text>
</g>
<!-- q8&#45;&gt;q8 -->
<g id="edge21" class="edge">
<title>q8&#45;&gt;q8</title>
<path fill="none" stroke="#1a936f" d="M391.7919,-233.1507C401.4139,-233.5535 409.9965,-232.5831 409.9965,-230.2393 409.9965,-228.8111 406.8095,-227.8928 402.1423,-227.4845"/>
<polygon fill="#1a936f" stroke="#1a936f" points="401.8437,-223.9797 391.7919,-227.328 401.7378,-230.9789 401.8437,-223.9797"/>
<text text-anchor="middle" x="437.4965" y="-226.5393" font-family="Times,serif" font-size="14.00" fill="#1a936f"> &#160;P, P, R &#160;</text>
</g>
<!-- q8&#45;&gt;q8 -->
<g id="edge22" class="edge">
<title>q8&#45;&gt;q8</title>
<path fill="none" stroke="#555555" d="M391.6801,-234.3933C420.2818,-237.8427 464.9965,-236.4581 464.9965,-230.2393 464.9965,-224.725 429.8386,-223.0117 401.9321,-225.0992"/>
<polygon fill="#555555" stroke="#555555" points="401.299,-221.6439 391.6801,-226.0854 401.9694,-228.6117 401.299,-221.6439"/>
<text text-anchor="middle" x="491.4965" y="-226.5393" font-family="Times,serif" font-size="14.00" fill="#555555"> &#160;1, 1, R &#160;</text>
</g>
<!-- q8&#45;&gt;q8 -->
<g id="edge23" class="edge">
<title>q8&#45;&gt;q8</title>
<path fill="none" stroke="#26547c" d="M391.3884,-235.1766C433.4436,-241.9163 517.9965,-240.2706 517.9965,-230.2393 517.9965,-220.9526 445.5287,-218.8528 401.4026,-223.94"/>
<polygon fill="#26547c" stroke="#26547c" points="400.8254,-220.4862 391.3884,-225.3021 401.7689,-227.4223 400.8254,-220.4862"/>
<text text-anchor="middle" x="544.4965" y="-226.5393" font-family="Times,serif" font-size="14.00" fill="#26547c"> &#160;#, #, R &#160;</text>
</g>
<!-- q9 -->
<g id="node12" class="node">
<title>q9</title>
<ellipse fill="none" stroke="#555555" cx="374.4983" cy="-131.1436" rx="19.4965" ry="19.4965"/>
<text text-anchor="middle" x="374.4983" y="-127.4436" font-family="Times,serif" font-size="14.00" fill="#555555">q9</text>
</g>
<!-- q8&#45;&gt;q9 -->
<g id="edge24" class="edge">
<title>q8&#45;&gt;q9</title>
<path fill="none" stroke="#ef476f" d="M372.8934,-210.6612C373.181,-196.41 373.5756,-176.8604 373.9015,-160.7119"/>
<polygon fill="#ef476f" stroke="#ef476f" points="377.4014,-160.7497 374.104,-150.6811 370.4028,-160.6084 377.4014,-160.7497"/>
<text text-anchor="middle" x="402.9983" y="-176.9915" font-family="Times,serif" font-size="14.00" fill="#ef476f"> &#160;B, B, L &#160;</text>
</g>
<!-- q12&#45;&gt;q12 -->
<g id="edge31" class="edge">
<title>q12&#45;&gt;q12</title>
<path fill="none" stroke="#1a936f" d="M673.2726,-234.6998C683.1626,-235.0074 691.5461,-233.5206 691.5461,-230.2393 691.5461,-228.1885 688.2713,-226.8387 683.4006,-226.1898"/>
<polygon fill="#1a936f" stroke="#1a936f" points="683.4063,-222.6873 673.2726,-225.7789 683.1224,-229.6815 683.4063,-222.6873"/>
<text text-anchor="middle" x="719.0461" y="-226.5393" font-family="Times,serif" font-size="14.00" fill="#1a936f"> &#160;P, P, R &#160;</text>
</g>
<!-- q12&#45;&gt;q12 -->
<g id="edge32" class="edge">
<title>q12&#45;&gt;q12</title>
<path fill="none" stroke="#555555" d="M672.6369,-236.9185C702.7632,-241.5126 746.5461,-239.2862 746.5461,-230.2393 746.5461,-222.182 711.8169,-219.5347 682.937,-222.2975"/>
<polygon fill="#555555" stroke="#555555" points="682.1367,-218.8694 672.6369,-223.5602 682.9884,-225.8173 682.1367,-218.8694"/>
<text text-anchor="middle" x="773.0461" y="-226.5393" font-family="Times,serif" font-size="14.00" fill="#555555"> &#160;1, 1, R &#160;</text>
</g>
<!-- q13 -->
<g id="node15" class="node">
<title>q13</title>
<ellipse fill="none" stroke="#555555" cx="649.4983" cy="-131.1436" rx="24.0958" ry="24.0958"/>
<text text-anchor="middle" x="649.4983" y="-127.4436" font-family="Times,serif" font-size="14.00" fill="#555555">q13</text>
</g>
<!-- q12&#45;&gt;q13 -->
<g id="edge33" class="edge">
<title>q12&#45;&gt;q13</title>
<path fill="none" stroke="#26547c" d="M649.4983,-205.9978C649.4983,-193.8808 649.4983,-179.0037 649.4983,-165.7135"/>
<polygon fill="#26547c" stroke="#26547c" points="652.9984,-165.4783 649.4983,-155.4783 645.9984,-165.4784 652.9984,-165.4783"/>
<text text-anchor="middle" x="677.9983" y="-176.9915" font-family="Times,serif" font-size="14.00" fill="#26547c"> &#160;B, B, L &#160;</text>
</g>
<!-- q10 -->
<g id="node13" class="node">
<title>q10</title>
<ellipse fill="none" stroke="#555555" cx="292.4983" cy="-28.0479" rx="24.0958" ry="24.0958"/>
<text text-anchor="middle" x="292.4983" y="-24.3479" font-family="Times,serif" font-size="14.00" fill="#555555">q10</text>
</g>
<!-- q9&#45;&gt;q10 -->
<g id="edge25" class="edge">
<title>q9&#45;&gt;q10</title>
<path fill="none" stroke="#ffb20f" d="M362.0442,-115.4856C349.2641,-99.4176 329.1378,-74.1135 313.8177,-54.852"/>
<polygon fill="#ffb20f" stroke="#ffb20f" points="316.5457,-52.6592 307.5816,-47.0116 311.0673,-57.0167 316.5457,-52.6592"/>
<text text-anchor="middle" x="368.9983" y="-77.8957" font-family="Times,serif" font-size="14.00" fill="#ffb20f"> &#160;1, B, L &#160;</text>
</g>
<!-- q11 -->
<g id="node14" class="node">
<title>q11</title>
<ellipse fill="none" stroke="#555555" cx="570.4983" cy="-28.0479" rx="24.0958" ry="24.0958"/>
<text text-anchor="middle" x="570.4983" y="-24.3479" font-family="Times,serif" font-size="14.00" fill="#555555">q11</text>
</g>
<!-- q9&#45;&gt;q11 -->
<g id="edge26" class="edge">
<title>q9&#45;&gt;q11</title>
<path fill="none" stroke="#1a936f" d="M392.9361,-124.5564C424.05,-113.0334 488.3871,-87.4339 537.4983,-56.0957 539.9346,-54.5411 542.3833,-52.821 544.7857,-51.0201"/>
<polygon fill="#1a936f" stroke="#1a936f" points="547.0588,-53.684 552.69,-44.7096 542.6914,-48.2136 547.0588,-53.684"/>
<text text-anchor="middle" x="531.4983" y="-77.8957" font-family="Times,serif" font-size="14.00" fill="#1a936f"> &#160;P, P, L &#160;</text>
</g>
<!-- q10&#45;&gt;q7 -->
<g id="edge30" class="edge">
<title>q10&#45;&gt;q7</title>
<path fill="none" stroke="#ffb20f" d="M292.8644,-52.0957C293.873,-83.8159 297.5227,-141.1261 310.4983,-188.1915 321.5945,-228.4397 343.1068,-271.8451 357.6382,-298.67"/>
<polygon fill="#ffb20f" stroke="#ffb20f" points="354.7562,-300.6925 362.6438,-307.7661 360.8889,-297.3176 354.7562,-300.6925"/>
<text text-anchor="middle" x="339.9983" y="-176.9915" font-family="Times,serif" font-size="14.00" fill="#ffb20f"> &#160;Y, Y, R &#160;</text>
</g>
<!-- q10&#45;&gt;q10 -->
<g id="edge27" class="edge">
<title>q10&#45;&gt;q10</title>
<path fill="none" stroke="#555555" d="M316.6955,-31.278C326.4004,-31.4605 334.5461,-30.3838 334.5461,-28.0479 334.5461,-26.6244 331.5213,-25.6685 326.9621,-25.1803"/>
<polygon fill="#555555" stroke="#555555" points="326.8128,-21.6729 316.6955,-24.8177 326.5657,-28.6685 326.8128,-21.6729"/>
<text text-anchor="middle" x="361.5461" y="-24.3479" font-family="Times,serif" font-size="14.00" fill="#555555"> &#160;P, P, L &#160;</text>
</g>
<!-- q10&#45;&gt;q10 -->
<g id="edge28" class="edge">
<title>q10&#45;&gt;q10</title>
<path fill="none" stroke="#26547c" d="M316.4171,-32.9733C346.2225,-36.1558 388.5461,-34.514 388.5461,-28.0479 388.5461,-22.289 354.9745,-20.3568 326.5745,-22.2513"/>
<polygon fill="#26547c" stroke="#26547c" points="326.0814,-18.7807 316.4171,-23.1225 326.6796,-25.7551 326.0814,-18.7807"/>
<text text-anchor="middle" x="414.5461" y="-24.3479" font-family="Times,serif" font-size="14.00" fill="#26547c"> &#160;1, 1, L &#160;</text>
</g>
<!-- q10&#45;&gt;q10 -->
<g id="edge29" class="edge">
<title>q10&#45;&gt;q10</title>
<path fill="none" stroke="#ef476f" d="M315.8216,-33.9893C359.986,-40.5908 440.5461,-38.6104 440.5461,-28.0479 440.5461,-18.2487 371.2088,-15.836 325.9224,-20.8097"/>
<polygon fill="#ef476f" stroke="#ef476f" points="325.2945,-17.3615 315.8216,-22.1065 326.1859,-24.3045 325.2945,-17.3615"/>
<text text-anchor="middle" x="466.5461" y="-24.3479" font-family="Times,serif" font-size="14.00" fill="#ef476f"> &#160;#, #, L &#160;</text>
</g>
<!-- q13&#45;&gt;q14 -->
<g id="edge39" class="edge">
<title>q13&#45;&gt;q14</title>
<path fill="none" stroke="#ef476f" d="M649.4983,-106.9722C649.4983,-94.9259 649.4983,-80.0696 649.4983,-66.5076"/>
<polygon fill="#ef476f" stroke="#ef476f" points="652.9984,-66.4569 649.4983,-56.4569 645.9984,-66.457 652.9984,-66.4569"/>
<text text-anchor="middle" x="675.9983" y="-77.8957" font-family="Times,serif" font-size="14.00" fill="#ef476f"> &#160;$, $, R &#160;</text>
</g>
<!-- q13&#45;&gt;q13 -->
<g id="edge34" class="edge">
<title>q13&#45;&gt;q13</title>
<path fill="none" stroke="#ef476f" d="M673.6955,-132.9326C683.4004,-133.0337 691.5461,-132.4373 691.5461,-131.1436 691.5461,-130.3552 688.5213,-129.8258 683.9621,-129.5554"/>
<polygon fill="#ef476f" stroke="#ef476f" points="683.7621,-126.0509 673.6955,-129.3546 683.6251,-133.0496 683.7621,-126.0509"/>
<text text-anchor="middle" x="718.0461" y="-127.4436" font-family="Times,serif" font-size="14.00" fill="#ef476f"> &#160;P, 1, L &#160;</text>
</g>
<!-- q13&#45;&gt;q13 -->
<g id="edge35" class="edge">
<title>q13&#45;&gt;q13</title>
<path fill="none" stroke="#ffb20f" d="M673.7211,-133.899C703.2154,-135.6246 744.5461,-134.7061 744.5461,-131.1436 744.5461,-127.9707 711.7621,-126.8952 683.7542,-127.9169"/>
<polygon fill="#ffb20f" stroke="#ffb20f" points="683.5458,-124.4227 673.7211,-128.3882 683.8744,-131.415 683.5458,-124.4227"/>
<text text-anchor="middle" x="770.5461" y="-127.4436" font-family="Times,serif" font-size="14.00" fill="#ffb20f"> &#160;1, 1, L &#160;</text>
</g>
<!-- q13&#45;&gt;q13 -->
<g id="edge36" class="edge">
<title>q13&#45;&gt;q13</title>
<path fill="none" stroke="#1a936f" d="M673.3652,-134.4866C717.4126,-138.0798 796.5461,-136.9655 796.5461,-131.1436 796.5461,-125.7424 728.4366,-124.393 683.4211,-127.0953"/>
<polygon fill="#1a936f" stroke="#1a936f" points="683.0958,-123.6095 673.3652,-127.8006 683.5856,-130.5923 683.0958,-123.6095"/>
<text text-anchor="middle" x="822.5461" y="-127.4436" font-family="Times,serif" font-size="14.00" fill="#1a936f"> &#160;#, #, L &#160;</text>
</g>
<!-- q13&#45;&gt;q13 -->
<g id="edge37" class="edge">
<title>q13&#45;&gt;q13</title>
<path fill="none" stroke="#555555" d="M673.635,-134.979C730.1837,-140.5033 848.5461,-139.2248 848.5461,-131.1436 848.5461,-123.5201 743.2122,-121.9505 683.806,-126.4349"/>
<polygon fill="#555555" stroke="#555555" points="683.2989,-122.9655 673.635,-127.3082 683.8978,-129.9399 683.2989,-122.9655"/>
<text text-anchor="middle" x="876.0461" y="-127.4436" font-family="Times,serif" font-size="14.00" fill="#555555"> &#160;X, 1, L &#160;</text>
</g>
<!-- q13&#45;&gt;q13 -->
<g id="edge38" class="edge">
<title>q13&#45;&gt;q13</title>
<path fill="none" stroke="#26547c" d="M673.6028,-135.3413C741.8181,-142.9257 903.5461,-141.5264 903.5461,-131.1436 903.5461,-121.2475 756.6247,-119.5125 683.7857,-125.9385"/>
<polygon fill="#26547c" stroke="#26547c" points="683.2096,-122.4783 673.6028,-126.9459 683.8988,-129.4443 683.2096,-122.4783"/>
<text text-anchor="middle" x="931.0461" y="-127.4436" font-family="Times,serif" font-size="14.00" fill="#26547c"> &#160;Y, 1, L &#160;</text>
</g>
</g>
</svg>
